<svg width="24" height="24" viewBox="0 0 24 24" fill="none" xmlns="http://www.w3.org/2000/svg">
<path fill-rule="evenodd" clip-rule="evenodd" d="M10.5592 10.5592H2.63922C1.84434 10.5592 1.19922 11.2043 1.19922 11.9992C1.19922 12.7941 1.84434 13.4392 2.63922 13.4392H10.5592V21.3592C10.5592 22.1541 11.2043 22.7992 11.9992 22.7992C12.7941 22.7992 13.4392 22.1541 13.4392 21.3592V13.4392H21.3592C22.1541 13.4392 22.7992 12.7941 22.7992 11.9992C22.7992 11.2043 22.1541 10.5592 21.3592 10.5592H13.4392V2.63922C13.4392 1.84434 12.7941 1.19922 11.9992 1.19922C11.2043 1.19922 10.5592 1.84434 10.5592 2.63922V10.5592Z" fill="#F2F2F2"/>
</svg>
