<svg width="20" height="20" viewBox="0 0 20 20" fill="none" xmlns="http://www.w3.org/2000/svg">
<path d="M17.4993 15.834H2.49935C2.27834 15.834 2.06637 15.9218 1.91009 16.0781C1.75381 16.2343 1.66602 16.4463 1.66602 16.6673C1.66602 16.8883 1.75381 17.1003 1.91009 17.2566C2.06637 17.4129 2.27834 17.5007 2.49935 17.5007H17.4993C17.7204 17.5007 17.9323 17.4129 18.0886 17.2566C18.2449 17.1003 18.3327 16.8883 18.3327 16.6673C18.3327 16.4463 18.2449 16.2343 18.0886 16.0781C17.9323 15.9218 17.7204 15.834 17.4993 15.834Z" fill="#353535"/>
<path d="M9.9995 1.66602C9.77849 1.66602 9.56653 1.75381 9.41025 1.91009C9.25397 2.06637 9.16617 2.27834 9.16617 2.49935V11.3244L6.4245 8.57435C6.26758 8.41743 6.05475 8.32927 5.83284 8.32927C5.61092 8.32927 5.39809 8.41743 5.24117 8.57435C5.08425 8.73127 4.99609 8.9441 4.99609 9.16602C4.99609 9.38793 5.08425 9.60076 5.24117 9.75768L9.40784 13.9243C9.48531 14.0025 9.57747 14.0645 9.67902 14.1068C9.78057 14.1491 9.88949 14.1708 9.9995 14.1708C10.1095 14.1708 10.2184 14.1491 10.32 14.1068C10.4215 14.0645 10.5137 14.0025 10.5912 13.9243L14.7578 9.75768C14.8355 9.67998 14.8972 9.58774 14.9392 9.48622C14.9813 9.38471 15.0029 9.2759 15.0029 9.16602C15.0029 9.05613 14.9813 8.94733 14.9392 8.84581C14.8972 8.74429 14.8355 8.65205 14.7578 8.57435C14.6801 8.49665 14.5879 8.43502 14.4864 8.39297C14.3849 8.35092 14.2761 8.32927 14.1662 8.32927C14.0563 8.32927 13.9475 8.35092 13.846 8.39297C13.7444 8.43502 13.6522 8.49665 13.5745 8.57435L10.8328 11.3244V2.49935C10.8328 2.27834 10.745 2.06637 10.5888 1.91009C10.4325 1.75381 10.2205 1.66602 9.9995 1.66602Z" fill="#353535"/>
</svg>
