<svg width="24" height="24" viewBox="0 0 24 24" fill="none" xmlns="http://www.w3.org/2000/svg">
<path fill-rule="evenodd" clip-rule="evenodd" d="M6.34366 17.6563C6.73419 18.0469 7.36735 18.0469 7.75788 17.6563L15.965 9.44921V15.5497C15.965 16.102 16.4127 16.5497 16.965 16.5497C17.5173 16.5497 17.965 16.102 17.965 15.5497V7.04972C17.965 6.49743 17.5173 6.04973 16.965 6.04973H16.951C16.9505 6.04973 16.9501 6.04973 16.9496 6.04973H8.465C7.91271 6.04973 7.46499 6.49743 7.46499 7.04972C7.46499 7.602 7.91271 8.04972 8.465 8.04972H14.5361L6.34366 16.2421C5.95316 16.6326 5.95316 17.2658 6.34366 17.6563Z" fill="#8B8B8B"/>
</svg>
