<svg width="132" height="132" viewBox="0 0 132 132" fill="none" xmlns="http://www.w3.org/2000/svg">
<g clip-path="url(#clip0_7793_2836)">
<path d="M112.669 19.3311C100.203 6.86505 83.6294 0 66.0001 0C48.3709 0 31.7966 6.86505 19.3311 19.3308C6.86505 31.7966 0 48.3709 0 66.0001C0 83.6294 6.86505 100.203 19.3311 112.669C31.7966 125.135 48.3709 132 66.0001 132C83.6296 132 100.203 125.135 112.669 112.669C125.135 100.203 132 83.6291 132 65.9999C132 48.3706 125.135 31.7966 112.669 19.3311ZM24.8057 24.8057C30.6094 19.0021 37.4226 14.5755 44.8486 11.6861C42.8707 14.1555 41.0199 16.9937 39.3237 20.186C37.3538 23.8933 35.654 27.965 34.2383 32.314C29.3342 31.5001 24.7903 30.4993 20.7307 29.3247C22.0031 27.7608 23.3604 26.251 24.8057 24.8057ZM16.0434 35.9868C20.7916 37.5072 26.2216 38.7893 32.1467 39.8048C30.4967 46.8085 29.5255 54.3452 29.2937 62.1291H7.87258C8.48102 52.7877 11.2865 43.8726 16.0434 35.9868ZM15.6219 95.2975C11.1218 87.5891 8.46271 78.9313 7.87232 69.8712H29.3084C29.5616 77.4326 30.5135 84.755 32.1078 91.5754C26.061 92.5556 20.4946 93.8053 15.6219 95.2975ZM24.8057 107.195C23.1609 105.549 21.629 103.822 20.2087 102.024C24.417 100.857 29.1215 99.869 34.1857 99.0765C35.6115 103.486 37.3295 107.611 39.3234 111.364C41.172 114.843 43.2043 117.9 45.3846 120.518C37.7508 117.635 30.7488 113.137 24.8057 107.195ZM62.1288 123.264C56.2486 121.617 50.686 116.247 46.1609 107.731C44.5782 104.753 43.1881 101.504 41.9972 98.0409C48.3729 97.3391 55.1573 96.9243 62.1288 96.8268V123.264ZM62.1288 89.0839C54.3975 89.1894 46.8619 89.6748 39.8048 90.5037C38.2481 84.0684 37.3115 77.1031 37.0544 69.8714H62.1291V89.0839H62.1288ZM62.1288 62.1288H37.0397C37.2746 54.695 38.2262 47.5353 39.8313 40.9363C46.8433 41.8129 54.3632 42.346 62.1288 42.4987V62.1288ZM62.1288 34.7553C55.1302 34.6142 48.3608 34.1579 42.0302 33.4133C43.2138 29.9865 44.5931 26.77 46.1609 23.8188C50.6858 15.3027 56.2486 9.93302 62.1288 8.28585V34.7553ZM116.201 36.398C120.809 44.1822 123.53 52.9494 124.128 62.1288H102.707C102.478 54.4346 101.525 46.9826 99.9098 40.0479C105.874 39.0847 111.371 37.8593 116.201 36.398ZM107.194 24.8057C108.749 26.3601 110.201 27.9895 111.555 29.681C107.411 30.8125 102.796 31.7729 97.8382 32.5458C96.4079 28.1094 94.6818 23.9593 92.6768 20.186C90.9807 16.9937 89.1298 14.1555 87.1519 11.6861C94.5774 14.5755 101.391 19.0021 107.194 24.8057ZM69.8714 69.8714H94.9461C94.6872 77.1593 93.738 84.1775 92.1591 90.6543C85.1482 89.7826 77.6316 89.2543 69.8714 89.1059V69.8714ZM69.8714 62.1288V42.5244C77.6071 42.4229 85.1487 41.9415 92.2125 41.1158C93.7916 47.665 94.7277 54.7623 94.9605 62.1288H69.8714ZM69.8709 8.28585H69.8712C75.7514 9.93302 81.314 15.3027 85.8391 23.8188C87.4319 26.8164 88.83 30.0883 90.026 33.5765C83.6418 34.2757 76.8497 34.6875 69.8709 34.7816V8.28585ZM69.8714 123.264V96.8493C76.8633 96.9864 83.6276 97.4386 89.9559 98.1785C88.7753 101.59 87.4007 104.792 85.8394 107.731C81.3142 116.247 75.7516 121.617 69.8714 123.264ZM107.194 107.195C101.251 113.137 94.2495 117.635 86.6154 120.518C88.7957 117.899 90.828 114.843 92.6766 111.364C94.6411 107.667 96.337 103.607 97.7503 99.2714C102.769 100.1 107.411 101.124 111.547 102.329C110.195 104.016 108.746 105.643 107.194 107.195ZM116.172 95.6509C111.368 94.1064 105.86 92.8067 99.8458 91.7812C101.469 84.9027 102.436 77.5086 102.692 69.8714H124.128C123.528 79.0697 120.798 87.8547 116.172 95.6509Z" fill="black"/>
</g>
<defs>
<clipPath id="clip0_7793_2836">
<rect width="132" height="132" fill="white"/>
</clipPath>
</defs>
</svg>
