<svg width="20" height="20" viewBox="0 0 20 20" fill="none" xmlns="http://www.w3.org/2000/svg">
<path d="M18.8089 8.21584L2.6724 1.52014C1.99259 1.23803 1.22459 1.36213 0.668141 1.84385C0.111696 2.32564 -0.121038 3.06799 0.0608368 3.78115L1.49713 9.41365H8.52939C8.85299 9.41365 9.11537 9.676 9.11537 9.99963C9.11537 10.3232 8.85302 10.5856 8.52939 10.5856H1.49713L0.0608368 16.2181C-0.121038 16.9313 0.111657 17.6736 0.668141 18.1554C1.22572 18.6381 1.99381 18.7606 2.67244 18.4791L18.8089 11.7834C19.5436 11.4786 20 10.7951 20 9.99963C20 9.2042 19.5436 8.52064 18.8089 8.21584Z" fill="#353535"/>
</svg>
