<svg width="22" height="22" viewBox="0 0 22 22" fill="none" xmlns="http://www.w3.org/2000/svg">
<g clip-path="url(#clip0_7635_266)">
<path d="M0 6.00422V13.2134C0 15.2611 1.65846 16.9196 3.70615 16.9196H14.4692C15.2307 16.9196 15.8569 16.2934 15.8569 15.5319V8.30576C15.8569 6.25807 14.1984 4.59961 12.1507 4.59961H1.38769C0.626153 4.59961 0 5.20884 0 5.95345V6.00422Z" fill="#353535"/>
<path d="M17.0924 14.027L20.0708 16.6332C20.5447 17.0563 21.2893 17.0055 21.7123 16.5317C21.8985 16.3117 22 16.0409 22 15.7701V5.75168C22 5.1086 21.4754 4.60091 20.8493 4.58398C20.5616 4.58398 20.2908 4.68552 20.0877 4.87168L17.0924 7.49475C16.8385 7.71475 16.7031 8.03629 16.7031 8.37475V13.164C16.7031 13.4855 16.8554 13.807 17.0924 14.027Z" fill="#353535"/>
</g>
<defs>
<clipPath id="clip0_7635_266">
<rect width="22" height="22" fill="white"/>
</clipPath>
</defs>
</svg>
