<svg width="21" height="20" viewBox="0 0 21 20" fill="none" xmlns="http://www.w3.org/2000/svg">
<path d="M14.6265 17.3295C14.3961 17.5857 14.1072 17.7826 13.7844 17.9032C13.4616 18.0239 13.1145 18.0648 12.7725 18.0225H3.7725C2.1955 18.0225 1.5225 17.3495 1.5225 15.7725V3.7725C1.5225 2.1955 2.1955 1.5225 3.7725 1.5225H9.0225V3.7725C8.96377 4.27916 9.02037 4.79254 9.18807 5.27423C9.35576 5.75593 9.6302 6.19348 9.99086 6.55414C10.3515 6.9148 10.7891 7.18924 11.2708 7.35693C11.7525 7.52462 12.2658 7.58122 12.7725 7.5225H15.0225V9.7725C15.0225 9.97141 15.1015 10.1622 15.2422 10.3028C15.3828 10.4435 15.5736 10.5225 15.7725 10.5225C15.9714 10.5225 16.1622 10.4435 16.3028 10.3028C16.4435 10.1622 16.5225 9.97141 16.5225 9.7725V6.7725C16.5226 6.67401 16.5032 6.57649 16.4654 6.48553C16.4277 6.39457 16.3723 6.31198 16.3025 6.2425L10.3025 0.242497C10.233 0.1727 10.1504 0.11733 10.0595 0.0795741C9.96851 0.0418178 9.87098 0.0224202 9.7725 0.0224974H3.7725C3.26584 -0.0362267 2.75246 0.0203739 2.27076 0.188065C1.78906 0.355757 1.35152 0.630197 0.990858 0.990858C0.630197 1.35152 0.355757 1.78906 0.188065 2.27076C0.0203739 2.75246 -0.0362267 3.26584 0.0224974 3.7725V15.7725C-0.0362267 16.2792 0.0203739 16.7925 0.188065 17.2742C0.355757 17.7559 0.630197 18.1935 0.990858 18.5541C1.35152 18.9148 1.78906 19.1892 2.27076 19.3569C2.75246 19.5246 3.26584 19.5812 3.7725 19.5225H12.7725C13.3513 19.5716 13.9333 19.4782 14.4676 19.2503C15.0019 19.0225 15.4723 18.6672 15.8375 18.2155C15.955 18.0549 16.0039 17.8542 15.9734 17.6576C15.9429 17.461 15.8356 17.2845 15.675 17.167C15.5144 17.0495 15.3137 17.0006 15.1171 17.0311C14.9205 17.0616 14.744 17.1689 14.6265 17.3295ZM10.5225 3.7725V2.5835L13.9615 6.0225H12.7725C11.1955 6.0225 10.5225 5.3495 10.5225 3.7725ZM20.3025 14.3025L18.3025 16.3025C18.1603 16.435 17.9723 16.5071 17.778 16.5037C17.5837 16.5002 17.3983 16.4215 17.2609 16.2841C17.1235 16.1467 17.0448 15.9613 17.0413 15.767C17.0379 15.5727 17.11 15.3847 17.2425 15.2425L17.9615 14.5225H10.7725C10.5736 14.5225 10.3828 14.4435 10.2422 14.3028C10.1015 14.1622 10.0225 13.9714 10.0225 13.7725C10.0225 13.5736 10.1015 13.3828 10.2422 13.2422C10.3828 13.1015 10.5736 13.0225 10.7725 13.0225H17.9615L17.2425 12.3025C17.11 12.1603 17.0379 11.9723 17.0413 11.778C17.0448 11.5837 17.1235 11.3983 17.2609 11.2609C17.3983 11.1235 17.5837 11.0448 17.778 11.0413C17.9723 11.0379 18.1603 11.11 18.3025 11.2425L20.3025 13.2425C20.3716 13.3127 20.4266 13.3956 20.4645 13.4865C20.5211 13.6235 20.536 13.7741 20.5071 13.9195C20.4783 14.0649 20.4071 14.1975 20.3025 14.3025Z" fill="#F2F2F2"/>
</svg>
