<svg width="19" height="14" viewBox="0 0 19 14" fill="none" xmlns="http://www.w3.org/2000/svg">
<path d="M14.1209 6.0375C14.4959 6.7875 14.6897 7.59375 14.6897 8.4375C14.6897 11.3687 12.3084 13.75 9.37718 13.75C6.44593 13.75 4.06468 11.3687 4.06468 8.4375C4.06468 5.50625 6.44593 3.125 9.37718 3.125C9.42093 3.125 9.52718 3.125 9.63968 3.1625C9.85218 3.23125 10.0084 3.4125 10.0522 3.63125C10.3147 4.8875 11.4334 5.80625 12.7209 5.80625C12.9584 5.80625 13.1897 5.775 13.3897 5.71875C13.6834 5.6375 13.9834 5.775 14.1209 6.0375ZM9.37718 0C5.10218 0 0.720932 3.75 0.00843213 8.01875C-0.0478179 8.35625 0.183432 8.68125 0.520932 8.7375C0.858432 8.79375 1.18343 8.5625 1.23968 8.225C1.79593 4.93125 5.38968 1.25 9.37718 1.25C13.3647 1.25 16.9584 4.93125 17.5084 8.225C17.5584 8.53125 17.8272 8.75 18.1272 8.75C18.1584 8.75 18.1959 8.75 18.2334 8.74375C18.5709 8.6875 18.8022 8.3625 18.7459 8.025C18.0334 3.75 13.6522 0 9.37718 0Z" fill="#F2F2F2"/>
</svg>
