<svg width="24" height="24" viewBox="0 0 24 24" fill="none" xmlns="http://www.w3.org/2000/svg">
<path d="M13.6977 12.0008L18.8492 6.84922C19.318 6.38047 19.318 5.62109 18.8492 5.15234C18.3805 4.68359 17.6211 4.68359 17.1523 5.15234L12.0008 10.3039L6.84922 5.15234C6.38047 4.68359 5.62109 4.68359 5.15234 5.15234C4.68359 5.62109 4.68359 6.38047 5.15234 6.84922L10.3039 12.0008L5.15234 17.1523C4.68359 17.6211 4.68359 18.3805 5.15234 18.8492C5.38672 19.0836 5.69375 19.2008 6.00078 19.2008C6.30781 19.2008 6.61484 19.0836 6.84922 18.8492L12.0008 13.6977L17.1523 18.8492C17.3867 19.0836 17.6938 19.2008 18.0008 19.2008C18.3078 19.2008 18.6148 19.0836 18.8492 18.8492C19.318 18.3805 19.318 17.6211 18.8492 17.1523L13.6977 12.0008Z" fill="black"/>
</svg>
