<svg width="3" height="10" viewBox="0 0 3 10" fill="none" xmlns="http://www.w3.org/2000/svg">
<path d="M1.42234 2.68258C0.990344 2.68258 0.642344 2.55658 0.378344 2.30458C0.126344 2.05258 0.000343829 1.72858 0.000343829 1.33258C0.000343829 0.948578 0.126344 0.630578 0.378344 0.378578C0.642344 0.126578 0.990344 0.000577807 1.42234 0.000577807C1.85434 0.000577807 2.19634 0.126578 2.44834 0.378578C2.71234 0.630578 2.84434 0.948578 2.84434 1.33258C2.84434 1.72858 2.71234 2.05258 2.44834 2.30458C2.19634 2.55658 1.85434 2.68258 1.42234 2.68258ZM1.42234 9.03658C0.990344 9.03658 0.642344 8.91058 0.378344 8.65858C0.126344 8.40658 0.000343829 8.08858 0.000343829 7.70458C0.000343829 7.30858 0.126344 6.98458 0.378344 6.73258C0.642344 6.48058 0.990344 6.35458 1.42234 6.35458C1.85434 6.35458 2.19634 6.48058 2.44834 6.73258C2.71234 6.98458 2.84434 7.30858 2.84434 7.70458C2.84434 8.08858 2.71234 8.40658 2.44834 8.65858C2.19634 8.91058 1.85434 9.03658 1.42234 9.03658Z" fill="#020202"/>
</svg>
