<svg width="20" height="20" viewBox="0 0 20 20" fill="none" xmlns="http://www.w3.org/2000/svg">
<path d="M9.99865 18.5826C8.49661 18.5923 7.01683 18.2194 5.69865 17.4993C5.67225 17.4883 5.64392 17.4826 5.61532 17.4826C5.58671 17.4826 5.55839 17.4883 5.53199 17.4993L2.59032 18.3326C2.41028 18.3899 2.21798 18.3967 2.03433 18.3524C1.85068 18.308 1.6827 18.2141 1.54868 18.0809C1.41465 17.9478 1.3197 17.7804 1.27415 17.597C1.2286 17.4137 1.23419 17.2213 1.29032 17.0409L2.17365 14.0826C2.19284 14.0316 2.19284 13.9753 2.17365 13.9243C1.27024 12.2731 0.909832 10.3794 1.14359 8.51178C1.37734 6.6442 2.19338 4.89769 3.47588 3.52012C4.75838 2.14256 6.44219 1.20394 8.28831 0.837471C10.1344 0.471004 12.0491 0.695313 13.7605 1.47856C15.472 2.26181 16.8932 3.56421 17.8226 5.2009C18.752 6.83759 19.1422 8.72542 18.938 10.5965C18.7338 12.4675 17.9454 14.2267 16.6848 15.6243C15.4242 17.0219 13.7554 17.987 11.9153 18.3826C11.2848 18.5137 10.6426 18.5807 9.99865 18.5826ZM5.59032 16.1909C5.83772 16.1943 6.08067 16.2572 6.29865 16.3743C7.37708 16.9657 8.58137 17.2905 9.81093 17.3215C11.0405 17.3525 12.2596 17.0888 13.3665 16.5525C14.4733 16.0161 15.4358 15.2227 16.1734 14.2385C16.9111 13.2543 17.4025 12.1079 17.6066 10.895C17.8108 9.6821 17.7217 8.43796 17.3469 7.26651C16.9721 6.09507 16.3224 5.03032 15.4521 4.16121C14.5818 3.29211 13.5161 2.64388 12.3441 2.27067C11.1722 1.89747 9.92793 1.81012 8.71532 2.01594C7.50037 2.21779 6.35165 2.70844 5.36578 3.44663C4.37992 4.18482 3.58573 5.14895 3.05001 6.25794C2.5143 7.36694 2.25273 8.58836 2.28729 9.81948C2.32186 11.0506 2.65156 12.2554 3.24865 13.3326C3.34254 13.5027 3.40191 13.6896 3.42336 13.8826C3.44481 14.0757 3.42792 14.2711 3.37365 14.4576L2.59865 17.0326L5.17365 16.2576C5.30852 16.2151 5.44891 16.1926 5.59032 16.1909Z" fill="#12141D"/>
<path d="M6.66667 11.0404C7.24196 11.0404 7.70833 10.574 7.70833 9.9987C7.70833 9.4234 7.24196 8.95703 6.66667 8.95703C6.09137 8.95703 5.625 9.4234 5.625 9.9987C5.625 10.574 6.09137 11.0404 6.66667 11.0404Z" fill="#12141D"/>
<path d="M9.9987 11.0404C10.574 11.0404 11.0404 10.574 11.0404 9.9987C11.0404 9.4234 10.574 8.95703 9.9987 8.95703C9.4234 8.95703 8.95703 9.4234 8.95703 9.9987C8.95703 10.574 9.4234 11.0404 9.9987 11.0404Z" fill="#12141D"/>
<path d="M13.3307 11.0404C13.906 11.0404 14.3724 10.574 14.3724 9.9987C14.3724 9.4234 13.906 8.95703 13.3307 8.95703C12.7554 8.95703 12.2891 9.4234 12.2891 9.9987C12.2891 10.574 12.7554 11.0404 13.3307 11.0404Z" fill="#12141D"/>
</svg>
