<svg width="22" height="22" viewBox="0 0 22 22" fill="none" xmlns="http://www.w3.org/2000/svg">
<path fill-rule="evenodd" clip-rule="evenodd" d="M9.36 9.36H1.44C0.64512 9.36 0 10.0051 0 10.8C0 11.5949 0.64512 12.24 1.44 12.24H9.36V20.16C9.36 20.9549 10.0051 21.6 10.8 21.6C11.5949 21.6 12.24 20.9549 12.24 20.16V12.24H20.16C20.9549 12.24 21.6 11.5949 21.6 10.8C21.6 10.0051 20.9549 9.36 20.16 9.36H12.24V1.44C12.24 0.64512 11.5949 0 10.8 0C10.0051 0 9.36 0.64512 9.36 1.44V9.36Z" fill="#F2F2F2"/>
</svg>
