<svg width="14" height="18" viewBox="0 0 14 18" fill="none" xmlns="http://www.w3.org/2000/svg">
<path d="M13.2632 2.30769H9.94737V1.92308C9.94737 0.862692 9.121 0 8.10526 0H5.89474C4.879 0 4.05263 0.862692 4.05263 1.92308V2.30769H0.736842C0.330105 2.30769 0 2.65231 0 3.07692V4.23077C0 4.65538 0.330105 5 0.736842 5H13.2632C13.6699 5 14 4.65538 14 4.23077V3.07692C14 2.65231 13.6699 2.30769 13.2632 2.30769ZM5.52632 1.92308C5.52632 1.71115 5.69174 1.53846 5.89474 1.53846H8.10526C8.30826 1.53846 8.47368 1.71115 8.47368 1.92308V2.30769H5.52632V1.92308Z" fill="#616161"/>
<path d="M12.8142 6.23817C12.6789 6.08654 12.4867 6 12.2857 6H1.71425C1.51318 6 1.32104 6.08654 1.18568 6.23817C1.05033 6.38981 0.984255 6.59271 1.00318 6.7967L1.88104 16.1375C1.98068 17.1993 2.89818 18 4.01532 18H9.98459C11.1014 18 12.0192 17.1993 12.1189 16.1375L12.9967 6.7967C13.016 6.59271 12.9496 6.38981 12.8142 6.23817ZM5.33067 16.1801C5.31531 16.1808 5.30031 16.1815 5.28496 16.1815C4.91103 16.1815 4.59675 15.8855 4.57282 15.5001L4.14425 8.59119C4.1196 8.19048 4.41853 7.84503 4.8121 7.81958C5.20674 7.79776 5.54531 8.09885 5.56996 8.49956L5.99853 15.4084C6.02317 15.8092 5.72424 16.1546 5.33067 16.1801ZM9.42709 15.5001C9.40316 15.8855 9.08887 16.1815 8.71495 16.1815C8.69995 16.1815 8.68459 16.1811 8.66923 16.1801C8.27531 16.1546 7.97674 15.8092 8.00138 15.4084L8.42995 8.49956C8.45495 8.09848 8.79245 7.79704 9.1878 7.81958C9.58173 7.84503 9.8803 8.19048 9.85566 8.59119L9.42709 15.5001Z" fill="#616161"/>
</svg>
