<svg width="24" height="24" viewBox="0 0 24 24" fill="none" xmlns="http://www.w3.org/2000/svg">
<path d="M2.40002 14.3996C3.72551 14.3996 4.80003 13.3251 4.80003 11.9996C4.80003 10.6741 3.72551 9.59961 2.40002 9.59961C1.07452 9.59961 0 10.6741 0 11.9996C0 13.3251 1.07452 14.3996 2.40002 14.3996Z" fill="#8B8B8B"/>
<path d="M12.0016 14.3996C13.3271 14.3996 14.4016 13.3251 14.4016 11.9996C14.4016 10.6741 13.3271 9.59961 12.0016 9.59961C10.6761 9.59961 9.60156 10.6741 9.60156 11.9996C9.60156 13.3251 10.6761 14.3996 12.0016 14.3996Z" fill="#8B8B8B"/>
<path d="M21.5992 14.3996C22.9247 14.3996 23.9993 13.3251 23.9993 11.9996C23.9993 10.6741 22.9247 9.59961 21.5992 9.59961C20.2737 9.59961 19.1992 10.6741 19.1992 11.9996C19.1992 13.3251 20.2737 14.3996 21.5992 14.3996Z" fill="#8B8B8B"/>
</svg>
