<svg width="17" height="17" viewBox="0 0 17 17" fill="none" xmlns="http://www.w3.org/2000/svg">
<path d="M3.5 4.33398H2.66667C2.22464 4.33398 1.80072 4.50958 1.48816 4.82214C1.17559 5.1347 1 5.55862 1 6.00065V13.5007C1 13.9427 1.17559 14.3666 1.48816 14.6792C1.80072 14.9917 2.22464 15.1673 2.66667 15.1673H10.1667C10.6087 15.1673 11.0326 14.9917 11.3452 14.6792C11.6577 14.3666 11.8333 13.9427 11.8333 13.5007V12.6673" stroke="#616161" stroke-width="2" stroke-linecap="round" stroke-linejoin="round"/>
<path d="M10.9993 2.66676L13.4993 5.16676M14.6535 3.98759C14.9817 3.65938 15.1661 3.21424 15.1661 2.75009C15.1661 2.28594 14.9817 1.84079 14.6535 1.51259C14.3253 1.18438 13.8802 1 13.416 1C12.9519 1 12.5067 1.18438 12.1785 1.51259L5.16602 8.50009V11.0001H7.66602L14.6535 3.98759Z" stroke="#616161" stroke-width="2" stroke-linecap="round" stroke-linejoin="round"/>
</svg>
