<svg width="18" height="18" viewBox="0 0 18 18" fill="none" xmlns="http://www.w3.org/2000/svg">
<path d="M8.92443 17.9166C7.42239 17.9262 5.94261 17.5534 4.62443 16.8333C4.59803 16.8223 4.56971 16.8166 4.5411 16.8166C4.5125 16.8166 4.48417 16.8223 4.45777 16.8333L1.5161 17.6666C1.33606 17.7239 1.14376 17.7307 0.960108 17.6863C0.776457 17.642 0.608486 17.5481 0.474459 17.4149C0.340433 17.2818 0.245482 17.1144 0.199931 16.931C0.15438 16.7477 0.159973 16.5553 0.216101 16.3749L1.09943 13.4166C1.11862 13.3656 1.11862 13.3093 1.09943 13.2583C0.19602 11.6071 -0.164387 9.71334 0.0693666 7.84576C0.30312 5.97818 1.11916 4.23167 2.40166 2.85411C3.68416 1.47655 5.36797 0.537922 7.2141 0.171455C9.06022 -0.195011 10.9749 0.0292977 12.6863 0.812546C14.3977 1.59579 15.819 2.89819 16.7484 4.53488C17.6778 6.17157 18.068 8.05941 17.8638 9.93044C17.6595 11.8015 16.8712 13.5607 15.6106 14.9583C14.35 16.3559 12.6812 17.321 10.8411 17.7166C10.2106 17.8477 9.56843 17.9147 8.92443 17.9166ZM4.5161 15.5249C4.7635 15.5283 5.00646 15.5912 5.22443 15.7083C6.30286 16.2997 7.50715 16.6245 8.73671 16.6555C9.96627 16.6865 11.1854 16.4228 12.2923 15.8864C13.3991 15.3501 14.3616 14.5567 15.0992 13.5725C15.8368 12.5883 16.3283 11.4419 16.5324 10.229C16.7365 9.01608 16.6475 7.77195 16.2727 6.6005C15.8978 5.42905 15.2481 4.3643 14.3778 3.4952C13.5075 2.62609 12.4419 1.97786 11.2699 1.60466C10.098 1.23145 8.85371 1.14411 7.6411 1.34992C6.42615 1.55178 5.27743 2.04243 4.29156 2.78062C3.3057 3.5188 2.51151 4.48294 1.97579 5.59193C1.44008 6.70092 1.17851 7.92234 1.21307 9.15346C1.24764 10.3846 1.57734 11.5894 2.17443 12.6666C2.26832 12.8366 2.32769 13.0236 2.34915 13.2166C2.3706 13.4097 2.3537 13.6051 2.29943 13.7916L1.52443 16.3666L4.09943 15.5916C4.2343 15.5491 4.37469 15.5266 4.5161 15.5249Z" fill="#12141D"/>
<path d="M5.59245 10.3743C6.16774 10.3743 6.63411 9.90798 6.63411 9.33268C6.63411 8.75739 6.16774 8.29102 5.59245 8.29102C5.01715 8.29102 4.55078 8.75739 4.55078 9.33268C4.55078 9.90798 5.01715 10.3743 5.59245 10.3743Z" fill="#12141D"/>
<path d="M8.92448 10.3743C9.49978 10.3743 9.96615 9.90798 9.96615 9.33268C9.96615 8.75739 9.49978 8.29102 8.92448 8.29102C8.34918 8.29102 7.88281 8.75739 7.88281 9.33268C7.88281 9.90798 8.34918 10.3743 8.92448 10.3743Z" fill="#12141D"/>
<path d="M12.2565 10.3743C12.8318 10.3743 13.2982 9.90798 13.2982 9.33268C13.2982 8.75739 12.8318 8.29102 12.2565 8.29102C11.6812 8.29102 11.2148 8.75739 11.2148 9.33268C11.2148 9.90798 11.6812 10.3743 12.2565 10.3743Z" fill="#12141D"/>
</svg>
