<svg width="19" height="15" viewBox="0 0 19 15" fill="none" xmlns="http://www.w3.org/2000/svg">
<path fill-rule="evenodd" clip-rule="evenodd" d="M7.45977 1.39492C6.34336 2.22031 5.47539 3.3625 4.98945 4.6875H3.11523C2.98555 4.6875 2.88086 4.79258 2.88086 4.92188C2.88086 5.05117 2.98555 5.15625 3.11523 5.15625H4.83594C4.6543 5.78477 4.55664 6.44922 4.55664 7.13555C4.55664 7.56602 4.59492 7.9875 4.66836 8.39727H1.73711C1.60781 8.39727 1.50273 8.50235 1.50273 8.63164C1.50273 8.76133 1.60781 8.86602 1.73711 8.86602H4.76914C5.08672 10.1363 5.7457 11.273 6.64258 12.1723H4.02109C3.8918 12.1723 3.78672 12.2773 3.78672 12.4066C3.78672 12.5359 3.8918 12.641 4.02109 12.641H7.15742C8.39141 13.659 9.97149 14.2711 11.6922 14.2711C15.6266 14.2711 18.8277 11.0699 18.8277 7.13555C18.8277 3.20078 15.6266 0 11.6922 0C10.4164 0 9.21797 0.336719 8.18047 0.926172H5.92617C5.79687 0.926172 5.6918 1.03125 5.6918 1.16055C5.6918 1.28984 5.79687 1.39492 5.92617 1.39492H7.45977ZM6.52109 7.13594C6.52109 4.28477 8.84063 1.96484 11.6922 1.96484C14.5434 1.96484 16.8633 4.28477 16.8633 7.13594C16.8633 9.98711 14.5434 12.307 11.6922 12.307C8.84063 12.3066 6.52109 9.98711 6.52109 7.13594ZM11.1965 7.37031C10.3027 7.37031 9.57539 6.64336 9.57539 5.74922C9.57539 4.85547 10.3027 4.12813 11.1965 4.12813H11.4578V3.33438C11.4578 3.20469 11.5625 3.1 11.6922 3.1C11.8215 3.1 11.9266 3.20469 11.9266 3.33438V4.12813H12.1879C13.0816 4.12813 13.8086 4.85508 13.8086 5.74922C13.8086 5.87852 13.7039 5.98359 13.5742 5.98359C13.4449 5.98359 13.3398 5.87852 13.3398 5.74922C13.3398 5.11367 12.823 4.59688 12.1879 4.59688H11.1965C10.5609 4.59688 10.0441 5.11367 10.0441 5.74922C10.0441 6.38477 10.5609 6.90156 11.1965 6.90156H12.1879C13.0816 6.90156 13.8086 7.62852 13.8086 8.52227C13.8086 9.41602 13.0816 10.1434 12.1879 10.1434H11.9266V10.9371C11.9266 11.0664 11.8215 11.1715 11.6922 11.1715C11.5625 11.1715 11.4578 11.0664 11.4578 10.9371V10.1434H11.1965C10.3027 10.1434 9.57539 9.41641 9.57539 8.52227C9.57539 8.39297 9.68047 8.28789 9.80977 8.28789C9.93945 8.28789 10.0441 8.39297 10.0441 8.52227C10.0441 9.15781 10.5609 9.67461 11.1965 9.67461H12.1879C12.823 9.67461 13.3398 9.15781 13.3398 8.52227C13.3398 7.88711 12.823 7.37031 12.1879 7.37031H11.1965ZM3.95547 10.2641C4.08477 10.2641 4.18984 10.3691 4.18984 10.4984C4.18984 10.6281 4.08477 10.7328 3.95547 10.7328H1.83711C1.70781 10.7328 1.60273 10.6277 1.60273 10.4984C1.60273 10.3691 1.70781 10.2641 1.83711 10.2641H3.95547ZM2.95312 6.54922C3.08242 6.54922 3.1875 6.65391 3.1875 6.78359C3.1875 6.91289 3.08242 7.01797 2.95312 7.01797H0.316406C0.187109 7.01797 0.0820312 6.91289 0.0820312 6.78359C0.0820312 6.65391 0.187109 6.54922 0.316406 6.54922H2.95312ZM1.54219 1.72031C1.4125 1.72031 1.30781 1.61523 1.30781 1.48594C1.30781 1.35625 1.4125 1.25156 1.54219 1.25156H4.22891C4.35859 1.25156 4.46328 1.35664 4.46328 1.48594C4.46328 1.61523 4.35859 1.72031 4.22891 1.72031H1.54219ZM3.89336 3.26016C4.02305 3.26016 4.12773 3.36484 4.12773 3.49453C4.12773 3.62383 4.02305 3.72891 3.89336 3.72891H0.234375C0.105078 3.72891 0 3.62383 0 3.49453C0 3.36484 0.105078 3.26016 0.234375 3.26016H3.89336ZM5.02539 7.13594C5.02539 3.45977 8.01602 0.46914 11.6922 0.46914C15.3684 0.46914 18.359 3.45977 18.359 7.13594C18.359 10.8121 15.3684 13.8027 11.6922 13.8027C8.01602 13.8027 5.02539 10.8117 5.02539 7.13594Z" fill="#616161"/>
</svg>
