<svg width="24" height="24" viewBox="0 0 24 24" fill="none" xmlns="http://www.w3.org/2000/svg">
<g clip-path="url(#clip0_7386_176)">
<path d="M23.8299 14.3545L22.1741 12.4227C23.3557 11.0896 23.9992 9.46369 23.9992 7.78102C23.9992 3.42141 19.7696 0 14.812 0C9.77209 0 5.6717 3.49055 5.6717 7.78102C5.6717 7.88878 5.67526 7.99683 5.68056 8.10478C2.32656 9.43753 1.12136e-05 12.3105 1.12136e-05 15.6324C1.12136e-05 17.4942 0.711199 19.2806 2.01601 20.728L0.173964 22.8332C-0.00767629 23.0408 -0.0511763 23.3355 0.0628706 23.5867C0.176871 23.838 0.42723 23.9993 0.703136 23.9993H10.5934C10.6717 23.9993 10.9181 23.9546 10.9684 23.95C13.2879 23.736 15.4379 22.8255 17.0534 21.3668C18.7591 19.8267 19.7684 17.7645 19.7321 15.5152H23.2961C23.8956 15.5152 24.2201 14.8097 23.8299 14.3545ZM10.7341 22.5589C10.6726 22.5639 10.4601 22.5822 10.4177 22.5931H2.25264L3.50167 21.1656C3.7501 20.8817 3.73018 20.4524 3.45653 20.1927C2.13437 18.9378 1.40621 17.3183 1.40621 15.6324C1.40621 11.8209 5.21176 8.71856 9.89031 8.71856C14.5426 8.71856 18.3275 11.8201 18.3275 15.6324C18.3275 19.1967 15.0071 22.2098 10.7341 22.5589ZM19.5701 14.109C18.7217 10.1974 14.6646 7.31236 9.89031 7.31236C8.91428 7.31236 7.97111 7.4325 7.07987 7.65511C7.16162 4.19794 10.5985 1.4063 14.812 1.4063C19.1025 1.4063 22.593 4.266 22.593 7.78106C22.593 9.28463 21.9345 10.743 20.7386 11.8877C20.4689 12.1458 20.448 12.5697 20.691 12.8532L21.7674 14.109H19.5701Z" fill="#020202"/>
<path d="M5.67183 14.1094C4.89647 14.1094 4.26562 14.7402 4.26562 15.5156C4.26562 16.2909 4.89647 16.9218 5.67183 16.9218C6.44719 16.9218 7.07803 16.2909 7.07803 15.5156C7.07803 14.7402 6.44723 14.1094 5.67183 14.1094Z" fill="#020202"/>
<path d="M9.89058 14.1094C9.11522 14.1094 8.48438 14.7402 8.48438 15.5156C8.48438 16.2909 9.11522 16.9218 9.89058 16.9218C10.6659 16.9218 11.2968 16.2909 11.2968 15.5156C11.2968 14.7402 10.666 14.1094 9.89058 14.1094Z" fill="#020202"/>
<path d="M14.1093 14.1094C13.334 14.1094 12.7031 14.7402 12.7031 15.5156C12.7031 16.2909 13.334 16.9218 14.1093 16.9218C14.8847 16.9218 15.5155 16.2909 15.5155 15.5156C15.5155 14.7402 14.8847 14.1094 14.1093 14.1094Z" fill="#020202"/>
</g>
<defs>
<clipPath id="clip0_7386_176">
<rect width="24" height="24" fill="white"/>
</clipPath>
</defs>
</svg>
