<svg width="28" height="24" viewBox="0 0 28 24" fill="none" xmlns="http://www.w3.org/2000/svg">
<path d="M14 9.36322C16.6235 9.36322 18.7578 7.26306 18.7578 4.68161C18.7578 2.10016 16.6235 0 14 0C11.3765 0 9.24219 2.10016 9.24219 4.68161C9.24219 7.26306 11.3765 9.36322 14 9.36322ZM14 1.61435C15.7188 1.61435 17.1172 2.99031 17.1172 4.68161C17.1172 6.37291 15.7188 7.74887 14 7.74887C12.2812 7.74887 10.8828 6.37291 10.8828 4.68161C10.8828 2.99031 12.2812 1.61435 14 1.61435Z" fill="#020202"/>
<path d="M23.625 9.36264C25.2835 9.36264 26.6328 8.03494 26.6328 6.403C26.6328 4.77105 25.2835 3.44336 23.625 3.44336C21.9665 3.44336 20.6172 4.77105 20.6172 6.403C20.6172 8.03494 21.9665 9.36264 23.625 9.36264ZM23.625 5.05771C24.3789 5.05771 24.9922 5.66121 24.9922 6.403C24.9922 7.14479 24.3789 7.74829 23.625 7.74829C22.8711 7.74829 22.2578 7.14479 22.2578 6.403C22.2578 5.66121 22.8711 5.05771 23.625 5.05771Z" fill="#020202"/>
<path d="M24.2867 11.1934H23.0179C21.5228 11.1934 20.2322 12.0625 19.6441 13.311C18.4333 12.0103 16.694 11.1934 14.7644 11.1934H13.2356C11.306 11.1934 9.56674 12.0103 8.35591 13.311C7.76774 12.0625 6.47712 11.1934 4.98202 11.1934H3.71327C1.66578 11.1934 0 12.8226 0 14.8251V20.7019C0 21.5713 0.721546 22.2786 1.60847 22.2786H6.62478C6.70889 23.2418 7.53204 24.0005 8.53244 24.0005H19.4676C20.4679 24.0005 21.2911 23.2418 21.3752 22.2786H26.3342C27.2528 22.2786 28 21.5462 28 20.6459V14.8251C27.9999 12.8226 26.3342 11.1934 24.2867 11.1934ZM1.64062 14.8251C1.64062 13.7127 2.57042 12.8077 3.71327 12.8077H4.98202C6.12488 12.8077 7.05467 13.7127 7.05467 14.8251V15.3778C6.50304 16.7911 6.61718 17.6381 6.61718 20.6642H1.64062V14.8251ZM19.7421 22.116C19.7421 22.265 19.619 22.3862 19.4676 22.3862H8.53238C8.38095 22.3862 8.2578 22.2649 8.2578 22.116V17.7057C8.2578 15.0049 10.4908 12.8077 13.2355 12.8077H14.7644C17.5092 12.8077 19.7421 15.0049 19.7421 17.7057V22.116ZM26.3593 20.6459C26.3593 20.6737 26.6651 20.6642 21.3828 20.6642C21.3828 17.6157 21.496 16.7888 20.9453 15.3778V14.8251C20.9453 13.7127 21.8751 12.8077 23.0179 12.8077H24.2867C25.4295 12.8077 26.3593 13.7127 26.3593 14.8251V20.6459Z" fill="#020202"/>
<path d="M4.37499 9.36264C6.0335 9.36264 7.3828 8.03494 7.3828 6.403C7.3828 4.77105 6.0335 3.44336 4.37499 3.44336C2.71649 3.44336 1.36719 4.77105 1.36719 6.403C1.36719 8.03494 2.71649 9.36264 4.37499 9.36264ZM4.37499 5.05771C5.12886 5.05771 5.74218 5.66121 5.74218 6.403C5.74218 7.14479 5.12886 7.74829 4.37499 7.74829C3.62113 7.74829 3.00781 7.14479 3.00781 6.403C3.00781 5.66121 3.62113 5.05771 4.37499 5.05771Z" fill="#020202"/>
</svg>
