<svg width="24" height="24" viewBox="0 0 24 24" fill="none" xmlns="http://www.w3.org/2000/svg">
<path fill-rule="evenodd" clip-rule="evenodd" d="M7.21109 9.07566C5.63305 9.07566 4.34917 10.3596 4.34917 11.9376C4.34918 13.5156 5.63303 14.7995 7.21107 14.7995C8.78915 14.7995 10.073 13.5157 10.073 11.9376C10.073 10.3596 8.78912 9.07569 7.21109 9.07566ZM7.21109 15.3361C5.33707 15.3361 3.8125 13.8116 3.8125 11.9376C3.81252 10.0636 5.33707 8.53906 7.21107 8.53906C9.08504 8.53903 10.6096 10.0636 10.6096 11.9376C10.6096 13.8116 9.08503 15.3362 7.21109 15.3361Z" fill="#020202"/>
<path fill-rule="evenodd" clip-rule="evenodd" d="M8.17307 20.7291C8.03842 20.7291 7.92232 20.628 7.90677 20.4911L7.48611 16.7913C7.48496 16.7813 7.48438 16.7712 7.48438 16.761C7.48438 16.7379 7.48737 16.7145 7.49323 16.6922L7.93841 15.0008C7.97619 14.8575 8.12288 14.772 8.26622 14.8097C8.40954 14.8474 8.4951 14.9941 8.45741 15.1375L8.02496 16.7802L8.44002 20.43C8.45679 20.5772 8.35097 20.7105 8.20371 20.7273C8.19343 20.7282 8.18316 20.7291 8.17307 20.7291Z" fill="#020202"/>
<path fill-rule="evenodd" clip-rule="evenodd" d="M6.25028 20.7292C6.24019 20.7292 6.2299 20.7283 6.2196 20.7273C6.07242 20.7105 5.9666 20.5773 5.98333 20.4301L6.39842 16.7803L5.96592 15.1375C5.92824 14.9942 6.0138 14.8474 6.1571 14.8097C6.30037 14.7719 6.44719 14.8576 6.48491 15.0009L6.93013 16.6922C6.93602 16.7145 6.93899 16.7375 6.93899 16.7605C6.939 16.7706 6.93838 16.7813 6.93727 16.7914L6.51656 20.4911C6.50099 20.6276 6.38489 20.7292 6.25028 20.7292Z" fill="#020202"/>
<path fill-rule="evenodd" clip-rule="evenodd" d="M7.75492 17.0288H6.67069C6.52251 17.0288 6.40234 16.9087 6.40234 16.7605C6.40236 16.6123 6.52249 16.4922 6.67068 16.4922L7.75492 16.4922C7.90312 16.4922 8.02325 16.6123 8.02325 16.7605C8.02325 16.9087 7.90312 17.0288 7.75492 17.0288Z" fill="#020202"/>
<path fill-rule="evenodd" clip-rule="evenodd" d="M11.1915 20.7281H1.26833C1.12016 20.7281 1 20.6084 1 20.4598V19.4717C1 16.8962 3.0953 14.8008 5.67079 14.8008L8.75418 14.8008C10.8908 14.8008 12.752 16.2451 13.2803 18.3129C13.317 18.4565 13.2303 18.6027 13.0867 18.6393C12.9432 18.6764 12.797 18.5894 12.7603 18.4458C12.2928 16.6156 10.6454 15.3375 8.75417 15.3375L5.67081 15.3374C3.39122 15.3374 1.53662 17.1921 1.53662 19.4717V20.1914H11.1915C11.3398 20.1914 11.4599 20.3116 11.4599 20.4598C11.4599 20.6083 11.3398 20.7281 11.1915 20.7281Z" fill="#020202"/>
<path fill-rule="evenodd" clip-rule="evenodd" d="M16.7852 11.7827C15.2072 11.7827 13.9233 13.0666 13.9233 14.6446C13.9233 16.2227 15.2072 17.5065 16.7852 17.5065C18.3633 17.5065 19.6473 16.2227 19.6473 14.6446C19.6473 13.0665 18.3633 11.7827 16.7852 11.7827ZM16.7852 18.0431C14.9113 18.0431 13.3867 16.5186 13.3867 14.6446C13.3867 12.7706 14.9113 11.2461 16.7852 11.2461C18.6593 11.2461 20.184 12.7707 20.184 14.6446C20.184 16.5186 18.6592 18.0432 16.7852 18.0431Z" fill="#020202"/>
<path fill-rule="evenodd" clip-rule="evenodd" d="M11.1109 22.8988H22.463V22.473C22.463 20.031 20.4765 18.0445 18.0344 18.0445L15.5395 18.0445C13.0975 18.0445 11.1108 20.031 11.1108 22.473L11.1109 22.8988ZM22.7313 23.4354H10.8426C10.6943 23.4354 10.5742 23.3153 10.5742 23.1672L10.5742 22.473C10.5742 19.7352 12.8016 17.5079 15.5395 17.5079L18.0344 17.5078C20.7724 17.5078 22.9996 19.7352 22.9996 22.473L22.9996 23.1671C22.9996 23.3153 22.8794 23.4355 22.7313 23.4354Z" fill="#020202"/>
<path fill-rule="evenodd" clip-rule="evenodd" d="M5.25029 0.536669C5.14542 0.536669 5.06011 0.622017 5.06011 0.726837L5.06014 5.42056C5.06014 5.52543 5.14541 5.61078 5.25027 5.61078L6.39414 5.61075C6.54234 5.61075 6.66248 5.73094 6.66248 5.87913V7.02905L8.22004 5.677C8.26887 5.6346 8.33131 5.61135 8.39593 5.61135L13.9433 5.61132C14.0482 5.61132 14.1335 5.526 14.1335 5.42114V0.726806C14.1335 0.621987 14.0482 0.536669 13.9433 0.536669H5.25029ZM6.3941 7.88567C6.35636 7.88567 6.31845 7.8777 6.28276 7.86146C6.18718 7.81779 6.12581 7.72244 6.12581 7.61734V6.14736H5.25029C4.84949 6.14736 4.52344 5.82136 4.52344 5.42058L4.52347 0.726806C4.52347 0.326037 4.84949 0 5.25027 0H13.9433C14.3441 0 14.6702 0.326052 14.6702 0.726837V5.42114C14.6702 5.82191 14.3441 6.14799 13.9433 6.14799L8.49614 6.14794L6.57005 7.8199C6.5203 7.86313 6.45755 7.88567 6.3941 7.88567Z" fill="#020202"/>
<path fill-rule="evenodd" clip-rule="evenodd" d="M12.3967 2.40575H6.79177C6.64359 2.40575 6.52344 2.28566 6.52344 2.13749C6.52344 1.98926 6.64359 1.86916 6.79177 1.86916L12.3967 1.86914C12.5449 1.86914 12.665 1.9893 12.665 2.13749C12.665 2.28563 12.5449 2.40576 12.3967 2.40575Z" fill="#020202"/>
<path fill-rule="evenodd" clip-rule="evenodd" d="M12.3967 4.27686H6.79177C6.64359 4.27686 6.52344 4.15677 6.52344 4.0086C6.52344 3.86035 6.64359 3.74026 6.79177 3.74026L12.3967 3.74023C12.5449 3.74023 12.665 3.8604 12.665 4.0086C12.665 4.15677 12.5449 4.27687 12.3967 4.27686Z" fill="#020202"/>
<path fill-rule="evenodd" clip-rule="evenodd" d="M17.6037 9.98919C17.5351 9.98919 17.4677 9.96292 17.4166 9.91331L15.706 8.25146H10.0544C9.65391 8.25146 9.32812 7.92545 9.32812 7.52467V5.87964C9.32812 5.73148 9.44823 5.61133 9.59641 5.61133C9.74463 5.6113 9.86475 5.73149 9.86475 5.87968V7.52465C9.86475 7.62952 9.94987 7.71488 10.0544 7.71488L15.8148 7.71485C15.8846 7.71485 15.9517 7.74209 16.0018 7.79073L17.3353 9.08608V7.98312C17.3353 7.83497 17.4554 7.71488 17.6036 7.71488L18.7475 7.71485C18.8524 7.71485 18.9378 7.62953 18.9378 7.52467L18.9378 2.83038C18.9378 2.7255 18.8524 2.6402 18.7475 2.6402L14.401 2.64018C14.2527 2.64018 14.1326 2.52005 14.1326 2.37187C14.1326 2.22363 14.2527 2.10353 14.401 2.10353L18.7475 2.10352C19.1483 2.10352 19.4744 2.42964 19.4744 2.83041L19.4744 7.52465C19.4744 7.92544 19.1483 8.2515 18.7475 8.2515L17.8719 8.25146V9.72081C17.8719 9.82867 17.8074 9.92603 17.7081 9.968C17.6744 9.98221 17.6388 9.9892 17.6037 9.98919Z" fill="#020202"/>
</svg>
