<svg width="24" height="24" viewBox="0 0 24 24" fill="none" xmlns="http://www.w3.org/2000/svg">
<g clip-path="url(#clip0_7386_153)">
<path d="M18.5 7C16.57 7 15 5.43 15 3.5C15 1.57 16.57 0 18.5 0C20.43 0 22 1.57 22 3.5C22 5.43 20.43 7 18.5 7ZM18.5 2C17.673 2 17 2.673 17 3.5C17 4.327 17.673 5 18.5 5C19.327 5 20 4.327 20 3.5C20 2.673 19.327 2 18.5 2ZM19 10C20.654 10 22 11.346 22 13C22 13.553 22.448 14 23 14C23.552 14 24 13.553 24 13C24 10.243 21.757 8 19 8C18.448 8 18 8.447 18 9C18 9.553 18.448 10 19 10ZM12 17C12 17.553 12.448 18 13 18H14C15.654 18 17 19.346 17 21C17 21.553 17.448 22 18 22C18.552 22 19 21.553 19 21C19 18.243 16.757 16 14 16H13C12.448 16 12 16.447 12 17ZM8.5 7C6.57 7 5 5.43 5 3.5C5 1.57 6.57 0 8.5 0C10.43 0 12 1.57 12 3.5C12 5.43 10.43 7 8.5 7ZM8.5 2C7.673 2 7 2.673 7 3.5C7 4.327 7.673 5 8.5 5C9.327 5 10 4.327 10 3.5C10 2.673 9.327 2 8.5 2ZM8 8C6.221 8 4.561 8.958 3.669 10.499C3.393 10.978 3.556 11.589 4.034 11.865C4.191 11.957 4.364 12 4.534 12C4.879 12 5.215 11.821 5.401 11.501C5.936 10.575 6.932 10 8 10C8.552 10 9 9.553 9 9C9 8.447 8.552 8 8 8ZM0 19C0 19.553 0.448 20 1 20H4V23C4 23.553 4.448 24 5 24C5.552 24 6 23.553 6 23V20H9C9.552 20 10 19.553 10 19C10 18.447 9.552 18 9 18H6V15C6 14.447 5.552 14 5 14C4.448 14 4 14.447 4 15V18H1C0.448 18 0 18.447 0 19ZM13.5 8C15.43 8 17 9.57 17 11.5C17 13.43 15.43 15 13.5 15C11.57 15 10 13.43 10 11.5C10 9.57 11.57 8 13.5 8ZM13.5 13C14.327 13 15 12.327 15 11.5C15 10.673 14.327 10 13.5 10C12.673 10 12 10.673 12 11.5C12 12.327 12.673 13 13.5 13Z" fill="#020202"/>
</g>
<defs>
<clipPath id="clip0_7386_153">
<rect width="24" height="24" fill="white" transform="matrix(-1 0 0 1 24 0)"/>
</clipPath>
</defs>
</svg>
