<svg width="24" height="24" viewBox="0 0 24 24" fill="none" xmlns="http://www.w3.org/2000/svg">
<g clip-path="url(#clip0_7386_151)">
<path d="M5 0H19C21.757 0 24 2.243 24 5V19C24 21.757 21.757 24 19 24H7.354C6.067 24 4.857 23.499 3.947 22.589L1.411 20.053C0.514 19.157 0 17.914 0 16.646V5C0 2.243 2.243 0 5 0ZM22 19V5C22 3.346 20.654 2 19 2H5C3.346 2 2 3.346 2 5V15H6C7.654 15 9 16.346 9 18V22H19C20.654 22 22 20.654 22 19ZM5.361 21.175C5.809 21.623 6.381 21.9 7 21.977V18C7 17.448 6.551 17 6 17H2.024C2.103 17.615 2.385 18.198 2.826 18.639L5.361 21.175ZM19 6.5C19 5.672 18.328 5 17.5 5C16.672 5 16 5.672 16 6.5C16 7.328 16.672 8 17.5 8C18.328 8 19 7.328 19 6.5ZM16 12C16 12.828 16.672 13.5 17.5 13.5C18.328 13.5 19 12.828 19 12C19 11.172 18.328 10.5 17.5 10.5C16.672 10.5 16 11.172 16 12ZM16 17.5C16 18.328 16.672 19 17.5 19C18.328 19 19 18.328 19 17.5C19 16.672 18.328 16 17.5 16C16.672 16 16 16.672 16 17.5Z" fill="#020202"/>
</g>
<defs>
<clipPath id="clip0_7386_151">
<rect width="24" height="24" fill="white" transform="matrix(-1 0 0 1 24 0)"/>
</clipPath>
</defs>
</svg>
