<svg width="24" height="24" viewBox="0 0 24 24" fill="none" xmlns="http://www.w3.org/2000/svg">
<path fill-rule="evenodd" clip-rule="evenodd" d="M18.75 13.3695C20.8988 12.861 22.5 10.9283 22.5 8.625C22.5 6.32175 20.8988 4.389 18.75 3.8805V3.75C18.75 2.50725 17.7428 1.5 16.5 1.5H7.75425C7.1205 1.5 6.516 1.76775 6.08925 2.2365L2.835 5.81625C2.4585 6.23025 2.25 6.77025 2.25 7.32975V20.25C2.25 20.847 2.487 21.4193 2.90925 21.8408C3.33075 22.263 3.903 22.5 4.5 22.5H16.5C17.097 22.5 17.6693 22.263 18.0908 21.8408C18.513 21.4193 18.75 20.847 18.75 20.25V13.3695ZM18.375 5.334C18.5033 5.3625 18.6277 5.39925 18.75 5.442C20.0603 5.90625 21 7.1565 21 8.625C21 10.0935 20.0603 11.3438 18.75 11.808C18.3983 11.9325 18.0195 12 17.625 12C17.4983 12 17.373 11.9932 17.25 11.979C15.8138 11.82 14.6482 10.7587 14.334 9.375H16.875C17.2725 9.375 17.6543 9.21675 17.9355 8.9355C18.2168 8.65425 18.375 8.2725 18.375 7.875V5.334ZM14.334 7.875C14.6205 6.61425 15.6143 5.6205 16.875 5.334V7.875H14.334ZM9 3H16.5C16.914 3 17.25 3.336 17.25 3.75V3.76425C14.7345 3.95625 12.75 6.06075 12.75 8.625C12.75 11.1892 14.7345 13.2938 17.25 13.4858V20.25C17.25 20.4487 17.1713 20.64 17.0303 20.7803C16.89 20.9213 16.6988 21 16.5 21H4.5C4.30125 21 4.11 20.9213 3.96975 20.7803C3.82875 20.64 3.75 20.4487 3.75 20.25V8.25H6.75C7.99275 8.25 9 7.24275 9 6V3ZM5.25 18.75C5.25 19.164 5.586 19.5 6 19.5C6.414 19.5 6.75 19.164 6.75 18.75V13.5C6.75 13.086 6.414 12.75 6 12.75C5.586 12.75 5.25 13.086 5.25 13.5V18.75ZM14.25 18.75C14.25 19.164 14.586 19.5 15 19.5C15.414 19.5 15.75 19.164 15.75 18.75V18C15.75 17.586 15.414 17.25 15 17.25C14.586 17.25 14.25 17.586 14.25 18V18.75ZM11.25 18.75C11.25 19.164 11.586 19.5 12 19.5C12.414 19.5 12.75 19.164 12.75 18.75V15.75C12.75 15.336 12.414 15 12 15C11.586 15 11.25 15.336 11.25 15.75V18.75ZM8.25 18.75C8.25 19.164 8.586 19.5 9 19.5C9.414 19.5 9.75 19.164 9.75 18.75V16.5C9.75 16.086 9.414 15.75 9 15.75C8.586 15.75 8.25 16.086 8.25 16.5V18.75ZM4.01325 6.75L7.19925 3.24525C7.2825 3.15375 7.386 3.0855 7.5 3.04425V6C7.5 6.414 7.164 6.75 6.75 6.75H4.01325Z" fill="#020202"/>
</svg>
