<svg width="24" height="24" viewBox="0 0 24 24" fill="none" xmlns="http://www.w3.org/2000/svg">
<g clip-path="url(#clip0_7386_174)">
<path d="M23 9.5C23 8.119 21.881 7 20.5 7C19.119 7 18 8.119 18 9.5C18 10.881 19.119 12 20.5 12C21.881 12 23 10.881 23 9.5ZM3.5 12C2.119 12 1 10.881 1 9.5C1 8.119 2.119 7 3.5 7C4.881 7 6 8.119 6 9.5C6 10.881 4.881 12 3.5 12ZM0 16.107V22C0 23.103 0.896999 24 2 24H4C5.103 24 6 23.103 6 22V17.082L6.876 17.782C7.053 17.924 7.273 18.001 7.5 18.001H10C10.553 18.001 11 17.553 11 17.001C11 16.449 10.553 16.001 10 16.001H7.851C7.851 16.001 4.838 13.63 4.771 13.598C4.122 13.121 3.313 12.909 2.505 13.041C1.077 13.273 0 14.592 0 16.107ZM2 16.107C2 15.57 2.362 15.09 2.825 15.014C3.417 14.897 4.014 15.395 4 16V22H2V16.107ZM10 20H14C15.103 20 16 20.897 16 22V23C16 23.552 15.553 24 15 24C14.447 24 14 23.552 14 23V22H10V23C10 23.552 9.553 24 9 24C8.447 24 8 23.552 8 23V22C8 20.897 8.897 20 10 20ZM14 18H16.5C16.727 18 16.947 17.923 17.124 17.781L18 17.081V21.999C18 23.102 18.897 23.999 20 23.999H22C23.103 23.999 24 23.102 24 21.999V16.106C24 14.59 22.924 13.272 21.497 13.04C20.721 12.911 19.948 13.104 19.313 13.54C19.232 13.575 16.149 16 16.149 16H14C13.447 16 13 16.448 13 17C13 17.552 13.447 18 14 18ZM20 16C19.986 15.394 20.583 14.897 21.176 15.014C21.638 15.09 22 15.57 22 16.107V22H20V16ZM15.951 7.367C15.694 5.714 14.367 4.356 12.724 4.065C11.546 3.856 10.341 4.17 9.431 4.934C8.521 5.696 7.999 6.814 7.999 8C7.999 9.413 8.759 10.734 9.982 11.447C10.305 11.635 10.499 11.96 10.499 12.314V13C10.499 13.552 10.946 14 11.499 14H12.499C13.052 14 13.499 13.552 13.499 13V12.318C13.499 11.969 13.715 11.629 14.077 11.409C15.464 10.567 16.199 8.98 15.95 7.366L15.951 7.367ZM13.04 9.7C12.613 9.959 12.264 10.294 12.006 10.679C11.751 10.292 11.405 9.961 10.991 9.719C10.37 9.358 10 8.715 10 8C9.977 6.78 11.167 5.782 12.375 6.034C13.177 6.176 13.849 6.866 13.975 7.674C14.102 8.496 13.745 9.274 13.04 9.701V9.7ZM12 3C11.447 3 11 2.552 11 2V1C11 0.448 11.447 0 12 0C12.553 0 13 0.448 13 1V2C13 2.552 12.553 3 12 3ZM8 4C7.744 4 7.488 3.902 7.293 3.707L6.593 3.007C6.202 2.616 6.202 1.984 6.593 1.593C6.984 1.202 7.616 1.202 8.007 1.593L8.707 2.293C9.098 2.684 9.098 3.316 8.707 3.707C8.512 3.902 8.256 4 8 4ZM16.707 3.707C16.316 4.098 15.684 4.098 15.293 3.707C14.902 3.316 14.902 2.684 15.293 2.293L15.993 1.593C16.384 1.202 17.016 1.202 17.407 1.593C17.798 1.984 17.798 2.616 17.407 3.007L16.707 3.707Z" fill="#020202"/>
</g>
<defs>
<clipPath id="clip0_7386_174">
<rect width="24" height="24" fill="white" transform="matrix(-1 0 0 1 24 0)"/>
</clipPath>
</defs>
</svg>
