<svg width="24" height="24" viewBox="0 0 24 24" fill="none" xmlns="http://www.w3.org/2000/svg">
<g clip-path="url(#clip0_7386_149)">
<path d="M0.207001 18C0.441 18.787 0.868 19.508 1.465 20.105L3.895 22.535C4.492 23.132 5.214 23.559 6.001 23.793V19C6.001 18.448 5.552 18 5.001 18H0.207001ZM0 5V16H5C6.654 16 8 17.346 8 19V24H19C21.757 24 24 21.757 24 19V5C24 2.243 21.757 0 19 0H5C2.243 0 0 2.243 0 5ZM17 17.5C17 16.672 17.672 16 18.5 16C19.328 16 20 16.672 20 17.5C20 18.328 19.328 19 18.5 19C17.672 19 17 18.328 17 17.5ZM17 12C17 11.172 17.672 10.5 18.5 10.5C19.328 10.5 20 11.172 20 12C20 12.828 19.328 13.5 18.5 13.5C17.672 13.5 17 12.828 17 12ZM17 6.5C17 5.672 17.672 5 18.5 5C19.328 5 20 5.672 20 6.5C20 7.328 19.328 8 18.5 8C17.672 8 17 7.328 17 6.5Z" fill="#FDFDFD"/>
</g>
<defs>
<clipPath id="clip0_7386_149">
<rect width="24" height="24" fill="white" transform="matrix(-1 0 0 1 24 0)"/>
</clipPath>
</defs>
</svg>
