<svg width="24" height="24" viewBox="0 0 24 24" fill="none" xmlns="http://www.w3.org/2000/svg">
<g clip-path="url(#clip0_7386_155)">
<path d="M-8.2016e-05 19C-8.2016e-05 19.553 0.44792 20 0.99992 20H3.99992V23C3.99992 23.553 4.44792 24 4.99992 24C5.55192 24 5.99992 23.553 5.99992 23V20H8.99992C9.55192 20 9.99992 19.553 9.99992 19C9.99992 18.447 9.55192 18 8.99992 18H5.99992V15C5.99992 14.447 5.55192 14 4.99992 14C4.44792 14 3.99992 14.447 3.99992 15V18H0.99992C0.44792 18 -8.2016e-05 18.447 -8.2016e-05 19ZM18.4999 7C16.5699 7 14.9999 5.43 14.9999 3.5C14.9999 1.57 16.5699 0 18.4999 0C20.4299 0 21.9999 1.57 21.9999 3.5C21.9999 5.43 20.4299 7 18.4999 7ZM8.49992 7C6.56992 7 4.99992 5.43 4.99992 3.5C4.99992 1.57 6.56992 0 8.49992 0C10.4299 0 11.9999 1.57 11.9999 3.5C11.9999 5.43 10.4299 7 8.49992 7ZM16.9999 11.5C16.9999 13.43 15.4299 15 13.4999 15C11.5699 15 9.99992 13.43 9.99992 11.5C9.99992 9.57 11.5699 8 13.4999 8C15.4299 8 16.9999 9.57 16.9999 11.5ZM18.9999 11.5C18.9999 10.207 18.5489 9.019 17.7989 8.079C18.0289 8.054 18.2619 8.035 18.4999 8.035C21.5639 8.035 24.0159 10.094 23.9999 13.028C23.9969 13.569 23.5349 14 22.9939 14H18.3919C18.7769 13.249 18.9999 12.401 18.9999 11.5ZM11.9999 19C11.9999 18.036 11.5349 17.186 10.8259 16.637C11.6219 16.251 12.5349 16.035 13.4999 16.035C16.5639 16.035 19.0159 18.094 18.9999 21.028C18.9969 21.569 18.5349 22 17.9939 22H9.00592C9.00592 22 9.00492 22 9.00392 22C10.6569 21.998 11.9999 20.653 11.9999 19ZM9.20092 8.079C8.45092 9.019 7.99992 10.207 7.99992 11.5C7.99992 12.401 8.22192 13.249 8.60692 14H7.81492C7.40092 12.839 6.30092 12 4.99892 12C4.23392 12 3.54192 12.297 3.01192 12.77C3.14192 9.976 5.58892 8.036 8.49892 8.036C8.73792 8.036 8.96992 8.055 9.19992 8.079H9.20092Z" fill="#FDFDFD"/>
</g>
<defs>
<clipPath id="clip0_7386_155">
<rect width="24" height="24" fill="white" transform="matrix(-1 0 0 1 24 0)"/>
</clipPath>
</defs>
</svg>
