<svg width="28" height="24" viewBox="0 0 28 24" fill="none" xmlns="http://www.w3.org/2000/svg">
<path d="M13.7558 9.34748C16.337 9.34748 18.4295 7.25497 18.4295 4.67374C18.4295 2.0925 16.337 0 13.7558 0C11.1745 0 9.08203 2.0925 9.08203 4.67374C9.08203 7.25497 11.1745 9.34748 13.7558 9.34748Z" fill="#FDFDFD"/>
<path d="M23.2086 9.34878C24.8404 9.34878 26.1632 8.02593 26.1632 6.39412C26.1632 4.7623 24.8404 3.43945 23.2086 3.43945C21.5768 3.43945 20.2539 4.7623 20.2539 6.39412C20.2539 8.02593 21.5768 9.34878 23.2086 9.34878Z" fill="#FDFDFD"/>
<path d="M4.29841 9.34878C5.93023 9.34878 7.25308 8.02593 7.25308 6.39412C7.25308 4.7623 5.93023 3.43945 4.29841 3.43945C2.6666 3.43945 1.34375 4.7623 1.34375 6.39412C1.34375 8.02593 2.6666 9.34878 4.29841 9.34878Z" fill="#FDFDFD"/>
<path d="M7.20884 12.0022C6.04578 11.0493 4.99247 11.1754 3.64767 11.1754C1.63635 11.1754 0 12.8021 0 14.8011V20.668C0 21.5361 0.708582 22.242 1.57994 22.242C5.34181 22.242 4.88862 22.3101 4.88862 22.0798C4.88862 17.9225 4.39622 14.8738 7.20884 12.0022Z" fill="#FDFDFD"/>
<path d="M15.0323 11.1962C12.6834 11.0003 10.6417 11.1985 8.88068 12.652C5.9337 15.0126 6.50084 18.1909 6.50084 22.079C6.50084 23.1077 7.33781 23.9603 8.38215 23.9603C19.7217 23.9603 20.173 24.3261 20.8455 22.837C21.066 22.3335 21.0055 22.4935 21.0055 17.676C21.0055 13.8497 17.6924 11.1962 15.0323 11.1962Z" fill="#FDFDFD"/>
<path d="M23.858 11.1753C22.5059 11.1753 21.4584 11.0505 20.2969 12.0021C23.0885 14.8523 22.6171 17.693 22.6171 22.0796C22.6171 22.3114 22.2409 22.2419 25.8694 22.2419C26.7719 22.2419 27.5057 21.5107 27.5057 20.612V14.801C27.5057 12.802 25.8694 11.1753 23.858 11.1753Z" fill="#FDFDFD"/>
</svg>
