<svg width="24" height="24" viewBox="0 0 24 24" fill="none" xmlns="http://www.w3.org/2000/svg">
<g clip-path="url(#clip0_7386_172)">
<path d="M0.999 9.5C0.999 8.119 2.118 7 3.499 7C4.88 7 5.999 8.119 5.999 9.5C5.999 10.881 4.88 12 3.499 12C2.118 12 0.999 10.881 0.999 9.5ZM14.999 20H8.999C7.896 20 6.999 20.897 6.999 22V23C6.999 23.552 7.446 24 7.999 24H15.999C16.552 24 16.999 23.552 16.999 23V22C16.999 20.897 16.102 20 14.999 20ZM20.499 12C21.88 12 22.999 10.881 22.999 9.5C22.999 8.119 21.88 7 20.499 7C19.118 7 17.999 8.119 17.999 9.5C17.999 10.881 19.118 12 20.499 12ZM21.911 13.034C21.188 12.913 20.44 13.119 19.88 13.596C19.86 13.613 16.854 16.001 16.854 16.001H14C13.447 16.001 13 16.449 13 17.001C13 17.553 13.447 18.001 14 18.001H17.205C17.432 18.001 17.652 17.924 17.829 17.782L19 16.847V22.001C19 23.104 19.897 24.001 21 24.001H22C23.103 24.001 24 23.104 24 22.001V15.581C24 14.323 23.103 13.228 21.912 13.035L21.911 13.034ZM10.999 17C10.999 16.448 10.552 16 9.999 16H7.145C7.145 16 4.139 13.613 4.119 13.595C3.558 13.118 2.81 12.913 2.088 13.033C0.898 13.227 0 14.322 0 15.579V21.999C0 23.102 0.897 23.999 2 23.999H3C4.103 23.999 5 23.102 5 21.999V16.845L6.171 17.78C6.348 17.922 6.568 17.999 6.795 17.999H10C10.553 17.999 11 17.551 11 16.999L10.999 17ZM11.999 3C12.552 3 12.999 2.552 12.999 2V1C12.999 0.448 12.552 0 11.999 0C11.446 0 10.999 0.448 10.999 1V2C10.999 2.552 11.446 3 11.999 3ZM15.999 4C16.255 4 16.511 3.902 16.706 3.707L17.406 3.007C17.797 2.616 17.797 1.984 17.406 1.593C17.015 1.202 16.383 1.202 15.992 1.593L15.292 2.293C14.901 2.684 14.901 3.316 15.292 3.707C15.487 3.902 15.743 4 15.999 4ZM7.292 3.707C7.683 4.098 8.315 4.098 8.706 3.707C9.097 3.316 9.097 2.684 8.706 2.293L8.006 1.593C7.615 1.202 6.983 1.202 6.592 1.593C6.201 1.984 6.201 2.616 6.592 3.007L7.292 3.707ZM9.37 11H14.624C15.483 10.25 16 9.159 16 8C16 6.813 15.479 5.696 14.568 4.934C13.658 4.17 12.453 3.855 11.275 4.064C9.632 4.356 8.305 5.713 8.048 7.367C7.835 8.749 8.348 10.109 9.37 11ZM11.499 15H12.499C13.052 15 13.499 14.552 13.499 14V13H10.499V14C10.499 14.552 10.946 15 11.499 15Z" fill="#FDFDFD"/>
</g>
<defs>
<clipPath id="clip0_7386_172">
<rect width="24" height="24" fill="white"/>
</clipPath>
</defs>
</svg>
