<svg width="24" height="24" viewBox="0 0 24 24" fill="none" xmlns="http://www.w3.org/2000/svg">
<path d="M20.972 1H9.75702C9.19007 1 8.72898 1.47191 8.72898 2.05217V5.87826C8.72898 6.45853 9.19007 6.93043 9.75702 6.93043H20.972C21.5389 6.93043 22 6.45853 22 5.87826V2.05217C22 1.47191 21.5389 1 20.972 1ZM19.4766 5.2087H11.2523C11.0975 5.2087 10.972 5.08018 10.972 4.92174C10.972 4.7633 11.0975 4.63478 11.2523 4.63478H19.4766C19.6314 4.63478 19.757 4.7633 19.757 4.92174C19.757 5.08018 19.6314 5.2087 19.4766 5.2087ZM19.4766 3.29565H11.2523C11.0975 3.29565 10.972 3.16713 10.972 3.0087C10.972 2.85026 11.0975 2.72174 11.2523 2.72174H19.4766C19.6314 2.72174 19.757 2.85026 19.757 3.0087C19.757 3.16713 19.6314 3.29565 19.4766 3.29565ZM5.99643 2.67651C6.10596 2.78862 6.10596 2.97021 5.99643 3.08227L3.98398 5.14178C3.86039 5.26846 3.69613 5.33794 3.52144 5.33794C3.34656 5.33794 3.1823 5.26808 3.05871 5.14178L2.08215 4.14229C1.97262 4.03018 1.97262 3.8486 2.08215 3.73653C2.19168 3.62447 2.3691 3.62443 2.4786 3.73653L3.45534 4.73602C3.50316 4.78461 3.53968 4.78461 3.58749 4.73602L5.59994 2.67651C5.70947 2.56441 5.88693 2.56441 5.99643 2.67651ZM5.55142 20.0348C5.55142 20.8258 4.9226 21.4696 4.14955 21.4696C3.3765 21.4696 2.74768 20.8258 2.74768 20.0348C2.74768 19.2438 3.3765 18.6 4.14955 18.6C4.9226 18.6 5.55142 19.2438 5.55142 20.0348ZM4.14955 17.6435C3.99475 17.6435 3.86918 17.515 3.86918 17.3565V14.812C3.86918 14.6536 3.99475 14.5251 4.14955 14.5251C4.30435 14.5251 4.42992 14.6536 4.42992 14.812V17.3565C4.42992 17.515 4.30435 17.6435 4.14955 17.6435ZM4.14955 10.6265C3.99475 10.6265 3.86918 10.498 3.86918 10.3396V6.77728C3.86918 6.61884 3.99475 6.49032 4.14955 6.49032C4.30435 6.49032 4.42992 6.61884 4.42992 6.77728V10.3396C4.42992 10.498 4.30435 10.6265 4.14955 10.6265ZM20.972 17.0696H9.75702C9.19007 17.0696 8.72898 17.5415 8.72898 18.1217V21.9478C8.72898 22.5281 9.19007 23 9.75702 23H20.972C21.5389 23 22 22.5281 22 21.9478V18.1217C22 17.5415 21.5389 17.0696 20.972 17.0696ZM19.4766 21.2783H11.2523C11.0975 21.2783 10.972 21.1497 10.972 20.9913C10.972 20.8329 11.0975 20.7043 11.2523 20.7043H19.4766C19.6314 20.7043 19.757 20.8329 19.757 20.9913C19.757 21.1497 19.6314 21.2783 19.4766 21.2783ZM19.4766 19.3652H11.2523C11.0975 19.3652 10.972 19.2367 10.972 19.0783C10.972 18.9198 11.0975 18.7913 11.2523 18.7913H19.4766C19.6314 18.7913 19.757 18.9198 19.757 19.0783C19.757 19.2367 19.6314 19.3652 19.4766 19.3652ZM20.972 9.03478H9.75702C9.19007 9.03478 8.72898 9.50669 8.72898 10.087V13.913C8.72898 14.4933 9.19007 14.9652 9.75702 14.9652H20.972C21.5389 14.9652 22 14.4933 22 13.913V10.087C22 9.50669 21.5389 9.03478 20.972 9.03478ZM21.4393 13.913C21.4393 14.1769 21.2297 14.3913 20.972 14.3913H9.75702C9.49926 14.3913 9.28973 14.1769 9.28973 13.913V10.087C9.28973 9.82315 9.49926 9.6087 9.75702 9.6087H20.972C21.2297 9.6087 21.4393 9.82315 21.4393 10.087V13.913ZM19.757 12.9565C19.757 13.115 19.6314 13.2435 19.4766 13.2435H11.2523C11.0975 13.2435 10.972 13.115 10.972 12.9565C10.972 12.7981 11.0975 12.6696 11.2523 12.6696H19.4766C19.6314 12.6696 19.757 12.7981 19.757 12.9565ZM19.757 11.0435C19.757 11.2019 19.6314 11.3304 19.4766 11.3304H11.2523C11.0975 11.3304 10.972 11.2019 10.972 11.0435C10.972 10.885 11.0975 10.7565 11.2523 10.7565H19.4766C19.6314 10.7565 19.757 10.885 19.757 11.0435ZM5.99643 10.7113C6.10596 10.8234 6.10596 11.005 5.99643 11.1171L3.98398 13.1766C3.86039 13.3032 3.69613 13.3727 3.52144 13.3727C3.34656 13.3727 3.1823 13.3029 3.05871 13.1766L2.08215 12.1771C1.97262 12.065 1.97262 11.8834 2.08215 11.7713C2.19168 11.6592 2.3691 11.6592 2.4786 11.7713L3.45534 12.7708C3.50316 12.8194 3.53968 12.8194 3.58749 12.7708L5.59994 10.7113C5.70947 10.5992 5.88693 10.5992 5.99643 10.7113Z" fill="#FDFDFD"/>
</svg>
