<svg width="24" height="24" viewBox="0 0 24 24" fill="none" xmlns="http://www.w3.org/2000/svg">
<path fill-rule="evenodd" clip-rule="evenodd" d="M14.8087 2.21094V5.1351C14.8087 5.55642 14.4659 5.89923 14.0446 5.89923L9.75781 5.8992V7.34592C9.75781 7.45616 9.8473 7.5459 9.9572 7.5459L16.0131 7.54587C16.0864 7.54587 16.1569 7.57451 16.2096 7.62564L17.6115 8.98743V7.8279C17.6115 7.67215 17.7378 7.5459 17.8936 7.5459L19.0961 7.54587C19.2064 7.54587 19.2962 7.45617 19.2962 7.34593L19.2962 2.41089C19.2962 2.30063 19.2064 2.21095 19.0961 2.21095L14.8087 2.21094Z" fill="#FDFDFD"/>
<path fill-rule="evenodd" clip-rule="evenodd" d="M4.70312 0.199921L4.70316 5.13438C4.70316 5.24462 4.7928 5.33435 4.90305 5.33435L6.10558 5.33431C6.26138 5.33431 6.38768 5.46067 6.38768 5.61646V6.82536L8.02512 5.40397C8.07646 5.35939 8.14211 5.33495 8.21003 5.33495H9.45493C9.46091 5.33457 9.46696 5.33435 9.47306 5.33435C9.47915 5.33435 9.48518 5.33457 9.49118 5.33495L14.0419 5.33492C14.1522 5.33492 14.2419 5.24522 14.2419 5.13498V0.19989C14.2419 0.0896946 14.1522 0 14.0419 0H4.90306C4.79282 0 4.70312 0.0897262 4.70312 0.199921ZM12.4184 3.36819C12.5742 3.36819 12.7005 3.49451 12.7005 3.65032C12.7005 3.80609 12.5742 3.93235 12.4184 3.93233H6.52603C6.37025 3.93233 6.24394 3.80609 6.24394 3.65032C6.24394 3.49447 6.37025 3.36822 6.52603 3.36822L12.4184 3.36819ZM12.4184 1.96613H6.52603C6.37025 1.96613 6.24394 1.83988 6.24394 1.68411C6.24394 1.52828 6.37025 1.40201 6.52603 1.40201L12.4184 1.402C12.5742 1.402 12.7005 1.52832 12.7005 1.68411C12.7005 1.83985 12.5742 1.96614 12.4184 1.96613Z" fill="#FDFDFD"/>
<path fill-rule="evenodd" clip-rule="evenodd" d="M6.96573 8.97852C5.30676 8.97852 3.95703 10.3283 3.95703 11.9873C3.95705 13.6462 5.30674 14.996 6.96571 14.996C8.62473 14.9959 9.97439 13.6463 9.97439 11.9873C9.97439 10.3283 8.6247 8.97855 6.96573 8.97852Z" fill="#FDFDFD"/>
<path fill-rule="evenodd" clip-rule="evenodd" d="M17.0321 11.8242C15.3731 11.8242 14.0234 13.174 14.0234 14.8329C14.0234 16.4919 15.3731 17.8416 17.0321 17.8416C18.6911 17.8416 20.041 16.4919 20.041 14.8329C20.041 13.1739 18.6911 11.8243 17.0321 11.8242Z" fill="#FDFDFD"/>
<path fill-rule="evenodd" clip-rule="evenodd" d="M15.7222 18.4062C13.155 18.4062 11.0664 20.4946 11.0664 23.0619L11.0664 23.5095H23.0008V23.0619C23.0008 20.4946 20.9125 18.4063 18.3451 18.4063L15.7222 18.4062Z" fill="#FDFDFD"/>
<path fill-rule="evenodd" clip-rule="evenodd" d="M8.21944 15.5605L7.82031 17.0767L8.2282 20.6634H11.0834C11.4822 19.8957 12.0662 19.2389 12.7758 18.7527C12.2587 16.8691 10.5464 15.5605 8.58438 15.5605H8.21944Z" fill="#FDFDFD"/>
<path fill-rule="evenodd" clip-rule="evenodd" d="M5.34622 15.5605C2.94971 15.5605 1 17.5103 1 19.9068V20.6635H5.70348L6.11139 17.0768L5.71223 15.5605H5.34622Z" fill="#FDFDFD"/>
<path fill-rule="evenodd" clip-rule="evenodd" d="M6.65151 17.3398L6.27344 20.6647H7.66573L7.28769 17.3398H6.65151Z" fill="#FDFDFD"/>
<path fill-rule="evenodd" clip-rule="evenodd" d="M7.63669 15.5605H6.29297L6.61252 16.7744H7.31719L7.63669 15.5605Z" fill="#FDFDFD"/>
</svg>
