<svg width="24" height="24" viewBox="0 0 24 24" fill="none" xmlns="http://www.w3.org/2000/svg">
<path fill-rule="evenodd" clip-rule="evenodd" d="M2.19315 8.25V20.25C2.19315 20.847 2.43 21.4193 2.85226 21.8408C3.27453 22.263 3.84685 22.5 4.44382 22.5H16.4474C17.0444 22.5 17.6167 22.263 18.039 21.8408C18.4612 21.4193 18.6981 20.847 18.6981 20.25V14.901C18.3326 14.9662 17.9564 15 17.5728 15C14.0531 15 11.1958 12.1432 11.1958 8.625C11.1958 5.10675 14.0531 2.25 17.5728 2.25C17.7667 2.25 17.9586 2.259 18.1472 2.2755C17.7346 1.80075 17.1258 1.5 16.4474 1.5H8.94518V6C8.94518 6.597 8.70831 7.16925 8.28605 7.59075C7.86378 8.013 7.29146 8.25 6.6945 8.25H2.19315ZM14.1967 18.75V18C14.1967 17.586 14.5333 17.25 14.947 17.25C15.3607 17.25 15.6972 17.586 15.6972 18V18.75C15.6972 19.164 15.3607 19.5 14.947 19.5C14.5333 19.5 14.1967 19.164 14.1967 18.75ZM11.1958 18.75V15.75C11.1958 15.336 11.5324 15 11.9461 15C12.3598 15 12.6963 15.336 12.6963 15.75V18.75C12.6963 19.164 12.3598 19.5 11.9461 19.5C11.5324 19.5 11.1958 19.164 11.1958 18.75ZM8.19494 18.75V16.5C8.19494 16.086 8.53148 15.75 8.94518 15.75C9.35887 15.75 9.6954 16.086 9.6954 16.5V18.75C9.6954 19.164 9.35887 19.5 8.94518 19.5C8.53148 19.5 8.19494 19.164 8.19494 18.75ZM5.19405 18.75V13.5C5.19405 13.086 5.53058 12.75 5.94427 12.75C6.35797 12.75 6.6945 13.086 6.6945 13.5V18.75C6.6945 19.164 6.35797 19.5 5.94427 19.5C5.53058 19.5 5.19405 19.164 5.19405 18.75ZM7.44472 1.51425C6.90563 1.57575 6.40298 1.83075 6.0343 2.2365L2.77831 5.81625C2.53503 6.08475 2.36141 6.405 2.26924 6.75H6.6945C6.89384 6.75 7.08461 6.67125 7.22501 6.53025C7.36541 6.39 7.44472 6.19875 7.44472 6V1.51425ZM12.7542 9.375C13.1154 11.7098 15.1367 13.5 17.5728 13.5C20.2639 13.5 22.4492 11.3153 22.4492 8.625C22.4492 6.18975 20.6583 4.1685 18.323 3.80775V7.875C18.323 8.70375 17.651 9.375 16.8225 9.375H12.7542ZM16.8225 3.80775C14.7315 4.131 13.0768 5.78475 12.7542 7.875H16.8225V3.80775Z" fill="#FDFDFD"/>
</svg>
