<svg width="24" height="24" viewBox="0 0 24 24" fill="none" xmlns="http://www.w3.org/2000/svg">
<g clip-path="url(#clip0_7382_2394)">
<path d="M1.8636 6.98895C1.50599 6.83815 1.09386 7.00606 0.943206 7.36372C0.520956 8.3659 0.238394 9.42317 0.10316 10.5061C0.0510345 10.9235 0.375691 11.296 0.801363 11.296C1.15068 11.296 1.45339 11.0358 1.49783 10.6802C1.61703 9.72514 1.86627 8.79289 2.23846 7.90934C2.38911 7.55168 2.2213 7.13961 1.8636 6.98895Z" fill="white"/>
<path d="M5.58876 20.397C4.82264 19.8148 4.13981 19.132 3.55931 18.3676C3.32456 18.0585 2.88361 17.9983 2.57465 18.2329C2.26556 18.4677 2.20528 18.9085 2.43998 19.2176C3.09754 20.0835 3.87089 20.8568 4.73845 21.516C5.04698 21.7505 5.48794 21.6912 5.72315 21.3817C5.9579 21.0727 5.89776 20.6318 5.58876 20.397Z" fill="white"/>
<path d="M21.4741 4.778C18.1695 0.425989 12.3496 -1.1342 7.32071 0.984129C6.96305 1.13479 6.79524 1.54686 6.94594 1.90452C7.0966 2.26213 7.50854 2.42994 7.86633 2.27929C12.303 0.41052 17.4385 1.78738 20.3548 5.62799C22.0531 7.86425 22.7796 10.6309 22.4004 13.4182C21.4596 20.3338 14.2051 24.3865 7.86633 21.7164C7.50858 21.5655 7.09655 21.7335 6.94594 22.0911C6.79524 22.4488 6.96305 22.8609 7.32071 23.0115C14.5406 26.0529 22.7315 21.4117 23.7931 13.6076C24.2228 10.4487 23.3992 7.31296 21.4741 4.778Z" fill="white"/>
<path d="M1.49782 13.3169C1.44968 12.9318 1.09886 12.6587 0.713412 12.7066C0.328287 12.7547 0.0550524 13.1059 0.103146 13.491C0.23838 14.574 0.521037 15.6312 0.943193 16.6333C1.09291 16.9887 1.50363 17.1597 1.86358 17.0081C2.22124 16.8575 2.38905 16.4453 2.23835 16.0877C1.86626 15.2043 1.61711 14.272 1.49782 13.3169Z" fill="white"/>
<path d="M2.57443 5.76219C2.88348 5.99708 3.32434 5.93689 3.55913 5.62789C4.14155 4.86153 4.82434 4.17871 5.58859 3.59839C5.89768 3.36369 5.95796 2.92283 5.72326 2.61374C5.4886 2.30464 5.04765 2.24431 4.7386 2.47906C3.87291 3.13639 3.09962 3.90974 2.44013 4.77749C2.20534 5.08653 2.26543 5.52739 2.57443 5.76219Z" fill="white"/>
<path d="M20.3888 11.9972C20.3888 7.34736 16.6059 3.56445 11.9561 3.56445C7.3063 3.56445 3.52344 7.34736 3.52344 11.9972C3.52344 16.647 7.30634 20.4299 11.9562 20.4299C16.606 20.4299 20.3888 16.6469 20.3888 11.9972ZM8.70627 16.0595C8.40322 15.8171 8.35409 15.3749 8.59653 15.0718L11.2535 11.7507V7.07811C11.2535 6.69003 11.5681 6.37541 11.9562 6.37541C12.3442 6.37541 12.6589 6.69003 12.6589 7.07811V11.9972C12.6589 12.1567 12.6045 12.3116 12.5049 12.4362L9.69397 15.9498C9.45139 16.253 9.00913 16.3019 8.70627 16.0595Z" fill="white"/>
</g>
<defs>
<clipPath id="clip0_7382_2394">
<rect width="24" height="24" fill="white"/>
</clipPath>
</defs>
</svg>
