<svg width="24" height="24" viewBox="0 0 24 24" fill="none" xmlns="http://www.w3.org/2000/svg">
<g clip-path="url(#clip0_7386_138)">
<path d="M9.89044 7.26562C4.46264 7.26562 4.93638e-05 10.9981 4.93638e-05 15.5862C4.93638e-05 17.4202 0.711424 19.2841 2.016 20.7287L0.173768 22.8339C-0.00749751 23.0413 -0.0514663 23.3359 0.0632369 23.5872C0.177237 23.8385 0.427174 23.9999 0.703174 23.9999H10.5936C14.6011 23.9999 19.7808 20.5489 19.7808 15.5862C19.7808 10.9981 15.3182 7.26562 9.89044 7.26562ZM5.62491 16.875C4.84969 16.875 4.21871 16.244 4.21871 15.4688C4.21871 14.6936 4.84974 14.0626 5.62491 14.0626C6.40008 14.0626 7.03111 14.6936 7.03111 15.4688C7.03116 16.244 6.40013 16.875 5.62491 16.875ZM9.89044 16.875C9.11522 16.875 8.48424 16.244 8.48424 15.4688C8.48424 14.6936 9.11527 14.0626 9.89044 14.0626C10.6656 14.0626 11.2966 14.6936 11.2966 15.4688C11.2966 16.244 10.6657 16.875 9.89044 16.875ZM14.156 16.875C13.3808 16.875 12.7498 16.244 12.7498 15.4688C12.7498 14.6936 13.3808 14.0626 14.156 14.0626C14.9311 14.0626 15.5622 14.6936 15.5622 15.4688C15.5622 16.244 14.9312 16.875 14.156 16.875Z" fill="#FDFDFD"/>
<path d="M23.8299 14.3073L22.1745 12.3758C23.3561 11.0424 23.9995 9.41639 23.9995 7.73419C23.9995 3.46955 19.899 0 14.8591 0C10.3017 0 6.42977 2.84011 5.74609 6.53672C7.01772 6.10462 8.4438 5.859 9.8905 5.859C16.0477 5.859 21.1063 10.1595 21.1803 15.4684H23.2964C23.897 15.4684 24.2196 14.7612 23.8299 14.3073Z" fill="#FDFDFD"/>
</g>
<defs>
<clipPath id="clip0_7386_138">
<rect width="24" height="24" fill="white"/>
</clipPath>
</defs>
</svg>
