<svg width="20" height="20" viewBox="0 0 20 20" fill="none" xmlns="http://www.w3.org/2000/svg">
<path d="M14.742 9.1625C15.117 9.9125 15.3108 10.7188 15.3108 11.5625C15.3108 14.4937 12.9295 16.875 9.99828 16.875C7.06703 16.875 4.68578 14.4937 4.68578 11.5625C4.68578 8.63125 7.06703 6.25 9.99828 6.25C10.042 6.25 10.1483 6.25 10.2608 6.2875C10.4733 6.35625 10.6295 6.5375 10.6733 6.75625C10.9358 8.0125 12.0545 8.93125 13.342 8.93125C13.5795 8.93125 13.8108 8.9 14.0108 8.84375C14.3045 8.7625 14.6045 8.9 14.742 9.1625ZM9.99828 3.125C5.72328 3.125 1.34203 6.875 0.629526 11.1438C0.573276 11.4812 0.804526 11.8062 1.14203 11.8625C1.47953 11.9187 1.80453 11.6875 1.86078 11.35C2.41703 8.05625 6.01078 4.375 9.99828 4.375C13.9858 4.375 17.5795 8.05625 18.1295 11.35C18.1795 11.6562 18.4483 11.875 18.7483 11.875C18.7795 11.875 18.817 11.875 18.8545 11.8687C19.192 11.8125 19.4233 11.4875 19.367 11.15C18.6545 6.875 14.2733 3.125 9.99828 3.125Z" fill="#F2F2F2"/>
</svg>
