<svg width="46" height="46" viewBox="0 0 46 46" fill="none" xmlns="http://www.w3.org/2000/svg">
<circle cx="23" cy="23" r="23" fill="#E1F6EB"/>
<path d="M28 12.5H15C14.337 12.5 13.7011 12.7634 13.2322 13.2322C12.7634 13.7011 12.5 14.337 12.5 15V28C12.5 28.663 12.7634 29.2989 13.2322 29.7678C13.7011 30.2366 14.337 30.5 15 30.5H25.04C24.6854 29.8932 24.499 29.2028 24.5 28.5C24.5015 27.4396 24.9233 26.423 25.6732 25.6732C26.423 24.9233 27.4396 24.5015 28.5 24.5C29.2028 24.499 29.8932 24.6854 30.5 25.04V15C30.5 14.337 30.2366 13.7011 29.7678 13.2322C29.2989 12.7634 28.663 12.5 28 12.5ZM22.5 16.5H27C27.1326 16.5 27.2598 16.5527 27.3536 16.6464C27.4473 16.7402 27.5 16.8674 27.5 17C27.5 17.1326 27.4473 17.2598 27.3536 17.3536C27.2598 17.4473 27.1326 17.5 27 17.5H22.5C22.3674 17.5 22.2402 17.4473 22.1464 17.3536C22.0527 17.2598 22 17.1326 22 17C22 16.8674 22.0527 16.7402 22.1464 16.6464C22.2402 16.5527 22.3674 16.5 22.5 16.5ZM19.81 25.39L17.31 27.39C17.2228 27.462 17.1131 27.5009 17 27.5C16.8674 27.4995 16.7401 27.4475 16.645 27.355L15.645 26.355C15.5508 26.2608 15.498 26.1332 15.498 26C15.498 25.8668 15.5508 25.7392 15.645 25.645C15.7392 25.5508 15.8668 25.498 16 25.498C16.1332 25.498 16.2608 25.5508 16.355 25.645L17.035 26.33L19.19 24.61C19.2403 24.5625 19.3 24.5259 19.3652 24.5027C19.4304 24.4794 19.4998 24.4699 19.5688 24.4749C19.6379 24.4798 19.7052 24.499 19.7664 24.5313C19.8277 24.5636 19.8815 24.6083 19.9246 24.6625C19.9677 24.7167 19.9991 24.7792 20.0167 24.8462C20.0343 24.9131 20.0379 24.983 20.0271 25.0514C20.0163 25.1198 19.9915 25.1852 19.9541 25.2435C19.9167 25.3018 19.8677 25.3517 19.81 25.39ZM19.81 20.89L17.31 22.89C17.2228 22.962 17.1131 23.0009 17 23C16.8674 22.9995 16.7401 22.9475 16.645 22.855L15.645 21.855C15.5508 21.7608 15.498 21.6332 15.498 21.5C15.498 21.3668 15.5508 21.2392 15.645 21.145C15.7392 21.0508 15.8668 20.998 16 20.998C16.1332 20.998 16.2608 21.0508 16.355 21.145L17.035 21.83L19.19 20.11C19.2403 20.0625 19.3 20.0259 19.3652 20.0027C19.4304 19.9794 19.4998 19.9699 19.5688 19.9749C19.6379 19.9798 19.7052 19.999 19.7664 20.0313C19.8277 20.0636 19.8815 20.1083 19.9246 20.1625C19.9677 20.2167 19.9991 20.2792 20.0167 20.3462C20.0343 20.4131 20.0379 20.483 20.0271 20.5514C20.0163 20.6198 19.9915 20.6852 19.9541 20.7435C19.9167 20.8018 19.8677 20.8517 19.81 20.89ZM19.81 16.39L17.31 18.39C17.2228 18.462 17.1131 18.5009 17 18.5C16.8674 18.4995 16.7401 18.4475 16.645 18.355L15.645 17.355C15.5508 17.2608 15.498 17.1332 15.498 17C15.498 16.8668 15.5508 16.7392 15.645 16.645C15.7392 16.5508 15.8668 16.498 16 16.498C16.1332 16.498 16.2608 16.5508 16.355 16.645L17.035 17.33L19.19 15.61C19.2403 15.5625 19.3 15.5259 19.3652 15.5027C19.4304 15.4794 19.4998 15.4699 19.5688 15.4749C19.6379 15.4798 19.7052 15.499 19.7664 15.5313C19.8277 15.5636 19.8815 15.6083 19.9246 15.6625C19.9677 15.7167 19.9991 15.7792 20.0167 15.8462C20.0343 15.9131 20.0379 15.983 20.0271 16.0514C20.0163 16.1198 19.9915 16.1852 19.9541 16.2435C19.9167 16.3018 19.8677 16.3517 19.81 16.39ZM22 21.5C22 21.3674 22.0527 21.2402 22.1464 21.1464C22.2402 21.0527 22.3674 21 22.5 21H27C27.1326 21 27.2598 21.0527 27.3536 21.1464C27.4473 21.2402 27.5 21.3674 27.5 21.5C27.5 21.6326 27.4473 21.7598 27.3536 21.8536C27.2598 21.9473 27.1326 22 27 22H22.5C22.3674 22 22.2402 21.9473 22.1464 21.8536C22.0527 21.7598 22 21.6326 22 21.5Z" fill="#008F22"/>
<path d="M30.5 23.92C29.8699 23.6421 29.1887 23.4991 28.5 23.5C27.1746 23.5021 25.904 24.0296 24.9668 24.9668C24.0296 25.904 23.5021 27.1746 23.5 28.5C23.4991 29.1887 23.6421 29.8699 23.92 30.5C24.2451 31.247 24.7479 31.9033 25.3845 32.4117C26.0212 32.9201 26.7724 33.2652 27.5729 33.417C28.3733 33.5688 29.1987 33.5227 29.9773 33.2828C30.7559 33.0428 31.464 32.6162 32.0401 32.0401C32.6162 31.464 33.0428 30.7559 33.2828 29.9773C33.5227 29.1987 33.5688 28.3733 33.417 27.5729C33.2652 26.7724 32.9201 26.0212 32.4117 25.3845C31.9033 24.7479 31.247 24.2451 30.5 23.92ZM28.5 32.5C27.7985 32.4996 27.1094 32.3146 26.5021 31.9635C25.8947 31.6125 25.3905 31.1077 25.04 30.5C24.6854 29.8932 24.499 29.2028 24.5 28.5C24.5015 27.4396 24.9234 26.423 25.6732 25.6732C26.423 24.9234 27.4396 24.5015 28.5 24.5C29.2028 24.499 29.8932 24.6854 30.5 25.04C31.2625 25.4799 31.8584 26.1592 32.1953 26.9725C32.5323 27.7857 32.5913 28.6874 32.3634 29.5377C32.1354 30.3879 31.6332 31.1391 30.9347 31.6748C30.2361 32.2104 29.3803 32.5005 28.5 32.5Z" fill="#008F22"/>
<path d="M28.0017 30.4997C27.8691 30.4997 27.7419 30.447 27.6482 30.3532L26.1482 28.8532C26.0571 28.7589 26.0067 28.6326 26.0078 28.5015C26.009 28.3704 26.0616 28.245 26.1543 28.1523C26.247 28.0596 26.3724 28.007 26.5035 28.0059C26.6346 28.0047 26.7609 28.0551 26.8552 28.1462L28.0017 29.2927L30.1482 27.1462C30.2425 27.0551 30.3688 27.0047 30.4999 27.0059C30.631 27.007 30.7564 27.0596 30.8491 27.1523C30.9418 27.245 30.9944 27.3704 30.9955 27.5015C30.9966 27.6326 30.9462 27.7589 30.8552 27.8532L28.3552 30.3532C28.2614 30.447 28.1343 30.4997 28.0017 30.4997Z" fill="#008F22"/>
</svg>
