<svg width="46" height="46" viewBox="0 0 46 46" fill="none" xmlns="http://www.w3.org/2000/svg">
<circle cx="23" cy="23" r="23" fill="#DBE9FE"/>
<g clip-path="url(#clip0_7948_538)">
<path fill-rule="evenodd" clip-rule="evenodd" d="M24.7144 15.8164C25.4748 15.9971 26.2001 16.2976 26.8666 16.7083L28.2654 16.0863L29.9131 17.7339L29.2934 19.1328C29.7042 19.7993 30.0046 20.5246 30.1853 21.2873L31.6123 21.8365V24.1672L30.1853 24.7163C30.0046 25.4768 29.7018 26.202 29.2934 26.8686L29.9131 28.2674L28.2654 29.915L26.8666 29.2954C26.2024 29.7061 25.4748 30.0065 24.7144 30.1873L24.1652 31.6143H21.8346L21.2854 30.1873C20.5226 30.0065 19.7973 29.7038 19.1308 29.2954L17.732 29.915L16.0844 28.2674L16.7063 26.8686C16.2956 26.2043 15.9952 25.4768 15.8121 24.7163L14.3851 24.1672V21.8365L15.8121 21.2873C15.9952 20.5246 16.2956 19.7993 16.7063 19.1328L16.0844 17.7339L17.732 16.0863L19.1308 16.7083C19.7973 16.2976 20.5226 15.9971 21.283 15.8164L21.8346 14.3871H24.1652L24.7144 15.8164ZM22.9983 17.2365C19.8136 17.2365 17.2346 19.8156 17.2346 23.0003C17.2346 26.1849 19.8137 28.7672 22.9983 28.7672C26.1829 28.7672 28.7652 26.1849 28.7652 23.0003C28.7652 19.8156 26.183 17.2365 22.9983 17.2365ZM22.9983 17.9895C25.7671 17.9895 28.0123 20.2315 28.0123 23.0003C28.0123 25.7691 25.7671 28.0142 22.9983 28.0142C20.2296 28.0142 17.9875 25.769 17.9875 23.0003C17.9875 20.2316 20.2296 17.9895 22.9983 17.9895ZM22.2828 23.4825L21.0637 22.2634C20.7479 21.9476 20.2352 21.9476 19.9194 22.2634C19.6037 22.5808 19.6037 23.0919 19.9194 23.4076L21.7115 25.2014C22.0273 25.5171 22.54 25.5171 22.8558 25.2014C23.9365 24.1206 25.0044 23.0284 26.0803 21.9427C26.3944 21.6253 26.3928 21.1142 26.077 20.8001C25.7612 20.4859 25.2485 20.4875 24.9343 20.8033L22.2828 23.4825ZM21.9625 12.1316C21.7556 12.1511 21.5718 11.999 21.5523 11.7921C21.5328 11.5853 21.6849 11.4015 21.8918 11.382C22.2562 11.3476 22.6254 11.3301 22.9987 11.3301C23.372 11.3301 23.7413 11.3476 24.1056 11.382C25.4303 11.5069 26.6909 11.8537 27.8498 12.3845C28.5257 12.6942 29.1671 13.0665 29.7664 13.4941C30.8241 14.2487 31.7507 15.1753 32.5053 16.233C32.9329 16.8323 33.3052 17.4737 33.6149 18.1496C34.1457 19.3085 34.4925 20.569 34.6173 21.8937C34.6517 22.2581 34.6693 22.6273 34.6693 23.0007C34.6693 23.374 34.6517 23.7432 34.6173 24.1076C34.4925 25.4323 34.1457 26.6929 33.6149 27.8517C33.3052 28.5277 32.9329 29.169 32.5053 29.7683C31.7507 30.826 30.8241 31.7527 29.7664 32.5073C29.1671 32.9348 28.5257 33.3072 27.8498 33.6168C26.6909 34.1477 25.4303 34.4944 24.1056 34.6193C23.7413 34.6537 23.372 34.6713 22.9987 34.6713C22.6254 34.6713 22.2562 34.6537 21.8918 34.6193C21.6849 34.5998 21.5328 34.4161 21.5523 34.2092C21.5718 34.0023 21.7556 33.8502 21.9625 33.8697C22.3036 33.9019 22.6493 33.9183 22.9987 33.9183C23.3482 33.9183 23.6938 33.9019 24.0349 33.8697C25.2737 33.7529 26.4525 33.4287 27.5362 32.9323C28.1685 32.6426 28.7685 32.2943 29.3291 31.8943C30.3189 31.1881 31.1861 30.3209 31.8924 29.3311C32.2923 28.7705 32.6406 28.1705 32.9303 27.5382C33.4268 26.4545 33.7509 25.2756 33.8678 24.0369C33.8999 23.6958 33.9164 23.3501 33.9164 23.0007C33.9164 22.6512 33.8999 22.3056 33.8678 21.9644C33.7509 20.7257 33.4268 19.5469 32.9303 18.4632C32.6406 17.8308 32.2923 17.2309 31.8924 16.6703C31.1861 15.6804 30.3189 14.8132 29.3291 14.107C28.7685 13.7071 28.1685 13.3587 27.5362 13.069C26.4525 12.5726 25.2737 12.2484 24.0349 12.1316C23.6938 12.0994 23.3482 12.083 22.9987 12.083C22.6493 12.083 22.3036 12.0994 21.9625 12.1316ZM18.4612 32.9323C18.6501 33.0188 18.7333 33.2424 18.6467 33.4313C18.5602 33.6202 18.3365 33.7033 18.1477 33.6168C17.4717 33.3072 16.8303 32.9348 16.231 32.5073C16.0619 32.3865 16.0225 32.1513 16.1432 31.9821C16.2639 31.813 16.4992 31.7737 16.6683 31.8943C17.2289 32.2943 17.8289 32.6426 18.4612 32.9323ZM14.1051 29.3311C14.2257 29.5002 14.1864 29.7355 14.0173 29.8561C13.8481 29.9769 13.6128 29.9375 13.4921 29.7683C13.0645 29.169 12.6922 28.5277 12.3826 27.8517C12.296 27.6628 12.3791 27.4392 12.568 27.3527C12.757 27.2661 12.9805 27.3492 13.0671 27.5382C13.3568 28.1705 13.7051 28.7705 14.1051 29.3311ZM12.1297 24.0369C12.1492 24.2438 11.9971 24.4275 11.7902 24.4471C11.5833 24.4665 11.3996 24.3145 11.3801 24.1076C11.3457 23.7432 11.3281 23.374 11.3281 23.0007C11.3281 22.6273 11.3457 22.2581 11.3801 21.8937C11.3996 21.6869 11.5833 21.5348 11.7902 21.5543C11.9971 21.5738 12.1492 21.7576 12.1297 21.9644C12.0975 22.3056 12.0811 22.6512 12.0811 23.0007C12.0811 23.3501 12.0975 23.6958 12.1297 24.0369ZM13.0671 18.4632C12.9805 18.6521 12.757 18.7352 12.568 18.6487C12.3791 18.5621 12.296 18.3385 12.3826 18.1496C12.6922 17.4737 13.0645 16.8323 13.4921 16.233C13.6128 16.0639 13.8481 16.0245 14.0173 16.1452C14.1864 16.2658 14.2257 16.5011 14.1051 16.6703C13.7051 17.2309 13.3568 17.8308 13.0671 18.4632ZM16.6683 14.107C16.4992 14.2277 16.2639 14.1883 16.1432 14.0192C16.0225 13.8501 16.0619 13.6148 16.231 13.4941C16.8303 13.0665 17.4717 12.6942 18.1477 12.3845C18.3365 12.298 18.5602 12.3811 18.6467 12.57C18.7333 12.7589 18.6501 12.9825 18.4612 13.069C17.8289 13.3587 17.2289 13.7071 16.6683 14.107Z" fill="#12141D"/>
</g>
<defs>
<clipPath id="clip0_7948_538">
<rect width="24" height="24" fill="white" transform="translate(11 11)"/>
</clipPath>
</defs>
</svg>
