<svg width="24" height="24" viewBox="0 0 24 24" fill="none" xmlns="http://www.w3.org/2000/svg">
<path d="M21 14.9062H9.74997C9.18124 14.9062 8.71872 14.4437 8.71872 13.875V10.125C8.71872 9.55628 9.18124 9.09375 9.74997 9.09375H21C21.5687 9.09375 22.0312 9.55628 22.0312 10.125V13.875C22.0312 14.4437 21.5687 14.9062 21 14.9062ZM9.74997 9.65625C9.4914 9.65625 9.28122 9.86644 9.28122 10.125V13.875C9.28122 14.1336 9.4914 14.3438 9.74997 14.3438H21C21.2585 14.3438 21.4687 14.1336 21.4687 13.875V10.125C21.4687 9.86644 21.2585 9.65625 21 9.65625H9.74997ZM19.7812 12.9375C19.7812 12.7822 19.6553 12.6562 19.5 12.6562H11.25C11.0947 12.6562 10.9687 12.7822 10.9687 12.9375C10.9687 13.0928 11.0947 13.2188 11.25 13.2188H19.5C19.6553 13.2188 19.7812 13.0928 19.7812 12.9375ZM19.7812 11.0625C19.7812 10.9072 19.6553 10.7812 19.5 10.7812H11.25C11.0947 10.7812 10.9687 10.9072 10.9687 11.0625C10.9687 11.2178 11.0947 11.3438 11.25 11.3438H19.5C19.6553 11.3438 19.7812 11.2178 19.7812 11.0625ZM21 7.03125H9.74997C9.18124 7.03125 8.71872 6.56873 8.71872 6V2.25C8.71872 1.68128 9.18124 1.21875 9.74997 1.21875H21C21.5687 1.21875 22.0312 1.68128 22.0312 2.25V6C22.0312 6.56873 21.5687 7.03125 21 7.03125ZM9.74997 1.78125C9.4914 1.78125 9.28122 1.99144 9.28122 2.25V6C9.28122 6.25856 9.4914 6.46875 9.74997 6.46875H21C21.2585 6.46875 21.4687 6.25856 21.4687 6V2.25C21.4687 1.99144 21.2585 1.78125 21 1.78125H9.74997ZM19.7812 5.0625C19.7812 4.90721 19.6553 4.78125 19.5 4.78125H11.25C11.0947 4.78125 10.9687 4.90721 10.9687 5.0625C10.9687 5.21779 11.0947 5.34375 11.25 5.34375H19.5C19.6553 5.34375 19.7812 5.21779 19.7812 5.0625ZM19.7812 3.1875C19.7812 3.03221 19.6553 2.90625 19.5 2.90625H11.25C11.0947 2.90625 10.9687 3.03221 10.9687 3.1875C10.9687 3.34279 11.0947 3.46875 11.25 3.46875H19.5C19.6553 3.46875 19.7812 3.34279 19.7812 3.1875ZM3.95888 13.1532L5.97762 11.1347C6.08749 11.0248 6.08749 10.8468 5.97762 10.737C5.86774 10.6271 5.68977 10.6271 5.57993 10.737L3.56119 12.7555C3.51323 12.8031 3.47659 12.8031 3.42863 12.7555L2.44883 11.7759C2.33895 11.666 2.16098 11.666 2.05114 11.7759C1.9413 11.8858 1.94127 12.0637 2.05114 12.1736L3.03075 13.1532C3.15473 13.277 3.3195 13.3455 3.49493 13.3455C3.67017 13.3455 3.8349 13.2774 3.95888 13.1532ZM3.95888 5.2782L5.97762 3.25965C6.08749 3.14978 6.08749 2.9718 5.97762 2.86196C5.86774 2.75212 5.68977 2.75209 5.57993 2.86196L3.56119 4.88051C3.51323 4.92814 3.47659 4.92814 3.42863 4.88051L2.44883 3.9009C2.33895 3.79102 2.16098 3.79102 2.05114 3.9009C1.9413 4.01078 1.94127 4.18875 2.05114 4.29859L3.03075 5.2782C3.15473 5.40199 3.3195 5.47046 3.49493 5.47046C3.67017 5.47046 3.8349 5.40236 3.95888 5.2782ZM4.12497 21.2812C3.3495 21.2812 2.71872 20.6503 2.71872 19.875C2.71872 19.0997 3.3495 18.4688 4.12497 18.4688C4.90043 18.4688 5.53122 19.0997 5.53122 19.875C5.53122 20.6503 4.90043 21.2812 4.12497 21.2812ZM4.12497 19.0312C3.6597 19.0312 3.28122 19.4099 3.28122 19.875C3.28122 20.3401 3.6597 20.7188 4.12497 20.7188C4.59023 20.7188 4.96872 20.3401 4.96872 19.875C4.96872 19.4099 4.59023 19.0312 4.12497 19.0312ZM4.40622 17.25V14.7561C4.40622 14.6008 4.28025 14.4749 4.12497 14.4749C3.96968 14.4749 3.84372 14.6008 3.84372 14.7561V17.25C3.84372 17.4053 3.96968 17.5312 4.12497 17.5312C4.28025 17.5312 4.40622 17.4053 4.40622 17.25ZM4.40622 10.3726V6.88114C4.40622 6.72585 4.28025 6.59989 4.12497 6.59989C3.96968 6.59989 3.84372 6.72585 3.84372 6.88114V10.3726C3.84372 10.5279 3.96968 10.6538 4.12497 10.6538C4.28025 10.6538 4.40622 10.5279 4.40622 10.3726ZM21 22.7812H9.74997C9.18124 22.7812 8.71872 22.3187 8.71872 21.75V18C8.71872 17.4313 9.18124 16.9688 9.74997 16.9688H21C21.5687 16.9688 22.0312 17.4313 22.0312 18V21.75C22.0312 22.3187 21.5687 22.7812 21 22.7812ZM9.74997 17.5312C9.4914 17.5312 9.28122 17.7414 9.28122 18V21.75C9.28122 22.0086 9.4914 22.2188 9.74997 22.2188H21C21.2585 22.2188 21.4687 22.0086 21.4687 21.75V18C21.4687 17.7414 21.2585 17.5312 21 17.5312H9.74997ZM19.7812 20.8125C19.7812 20.6572 19.6553 20.5312 19.5 20.5312H11.25C11.0947 20.5312 10.9687 20.6572 10.9687 20.8125C10.9687 20.9678 11.0947 21.0938 11.25 21.0938H19.5C19.6553 21.0938 19.7812 20.9678 19.7812 20.8125ZM19.7812 18.9375C19.7812 18.7822 19.6553 18.6562 19.5 18.6562H11.25C11.0947 18.6562 10.9687 18.7822 10.9687 18.9375C10.9687 19.0928 11.0947 19.2188 11.25 19.2188H19.5C19.6553 19.2188 19.7812 19.0928 19.7812 18.9375Z" fill="#020202"/>
</svg>
