<svg width="21" height="13" viewBox="0 0 21 13" fill="none" xmlns="http://www.w3.org/2000/svg">
<path d="M9.35487 10.5804L8.55697 11.7144V11.7148L8.46444 11.8468C8.34664 12.0148 8.18094 12.1199 7.97103 12.0988C7.86406 12.0881 7.75217 12.0431 7.66428 11.9812C7.57639 11.9192 7.49656 11.8295 7.4503 11.7325C7.36428 11.552 7.39887 11.3688 7.50373 11.2074V11.206L8.72797 9.46594L8.72858 9.46533C8.84628 9.30145 9.01048 9.19917 9.21753 9.21984C9.32445 9.23053 9.43592 9.27544 9.52381 9.33736C9.61175 9.39933 9.69167 9.48919 9.73784 9.58627C9.82831 9.77639 9.78537 9.96848 9.66753 10.136L9.35487 10.5804ZM8.34284 9.02241C8.4605 8.85487 8.50339 8.66283 8.41301 8.47275C8.36689 8.37576 8.28697 8.28572 8.19908 8.22394C8.11109 8.16211 7.99958 8.11725 7.89261 8.10656C7.6828 8.08561 7.51705 8.1907 7.39906 8.35852L7.08331 8.80753H7.03953V8.86908L6.19433 10.0709L5.93905 10.434C5.82083 10.6022 5.78033 10.791 5.86864 10.9816C5.96051 11.1799 6.17366 11.3299 6.39134 11.3493C6.60045 11.3679 6.76437 11.2661 6.88259 11.0981L7.05373 10.8549L8.25781 9.14339L8.34284 9.02241ZM5.25786 1.01864L3.59951 0.0610778C3.53041 0.0211224 3.452 7.28877e-05 3.37217 4.68493e-05C3.33125 4.68493e-05 3.29094 0.00548415 3.25142 0.016031C3.13287 0.0476248 3.03312 0.123047 2.97172 0.229312L0.0612021 5.27025C-0.0652666 5.48934 0.0107179 5.77153 0.229671 5.898L1.88801 6.85556C1.9403 6.88571 1.99803 6.9052 2.05789 6.91293C2.11775 6.92065 2.17854 6.91645 2.23676 6.90056C2.3547 6.86878 2.45464 6.79317 2.51581 6.68733L5.42633 1.64639C5.55298 1.42697 5.47719 1.1453 5.25786 1.01864ZM6.60664 8.53012V8.49337C6.71136 8.33189 6.74562 8.1488 6.65947 7.96847C6.6132 7.87162 6.53323 7.78177 6.44534 7.72003C6.35741 7.65825 6.24584 7.61348 6.13897 7.60284C5.92925 7.58194 5.7635 7.68689 5.64556 7.85461L4.78442 9.07908C4.66662 9.24661 4.62359 9.43861 4.71411 9.62873C4.76042 9.72595 4.84006 9.8153 4.928 9.87741C5.01556 9.93933 5.12759 9.98419 5.23414 9.99487C5.44095 10.0156 5.60511 9.91392 5.72286 9.75023L5.72347 9.74962L6.57322 8.5417L6.60664 8.53012ZM20.4635 5.27025L17.5529 0.229312C17.4916 0.123141 17.3917 0.0477654 17.2733 0.016031C17.2339 0.00543628 17.1933 4.69483e-05 17.1525 0C17.0723 0 16.9946 0.0209529 16.9251 0.061031L15.2666 1.01859C15.2143 1.04874 15.1686 1.08891 15.132 1.1368C15.0953 1.18469 15.0685 1.23935 15.0531 1.29764C15.0373 1.35587 15.0331 1.41666 15.0409 1.4765C15.0486 1.53635 15.0681 1.59407 15.0983 1.64634L18.0086 6.68728C18.0699 6.79345 18.1697 6.86887 18.2879 6.90056C18.3461 6.91637 18.4068 6.92053 18.4666 6.91281C18.5264 6.90508 18.5841 6.88563 18.6363 6.85556L20.2948 5.89819C20.5141 5.77172 20.59 5.48944 20.4635 5.27025ZM9.80867 10.9452L9.78791 10.9553L9.04025 12.0191L9.03767 12.0419C9.00922 12.2917 9.18261 12.5197 9.40137 12.6212C9.67109 12.7462 9.92422 12.6687 10.0955 12.4252L10.5274 11.8112C10.6987 11.5677 10.6856 11.3041 10.477 11.0926C10.307 10.9204 10.0355 10.8341 9.80867 10.9452ZM14.7083 2.24653C14.0087 2.44392 13.2911 2.52811 12.5649 2.50566C12.0054 2.48836 11.4602 2.40783 10.9144 2.28764C10.511 2.19891 10.0806 2.13412 9.67541 2.24737C9.36556 2.33395 9.101 2.51362 8.85491 2.71552C8.69441 2.84719 8.54098 2.98884 8.39056 3.13177C8.20044 3.31247 8.01378 3.49706 7.82689 3.68109C7.68157 3.82438 7.53589 3.96729 7.38983 4.10981L7.36442 4.13456L7.27025 6.11217C7.26598 6.20189 7.2718 6.35672 7.358 6.41114C7.43216 6.45792 7.55431 6.447 7.6363 6.43191C7.79244 6.40317 7.95064 6.3353 8.08962 6.2602C8.39478 6.09539 8.64767 5.51564 8.79134 5.20866C8.86011 5.0618 8.92878 4.91423 9.00481 4.77094C9.03413 4.71582 9.08072 4.67184 9.13742 4.64573C9.20569 4.61412 9.27378 4.58214 9.3417 4.54978C9.68328 4.38773 10.0427 4.21627 10.4195 4.15711C10.778 4.10081 11.1065 4.15659 11.4219 4.33917L15.9257 6.94645L17.1417 6.32555L14.7756 2.22759L14.7083 2.24653ZM15.7734 7.51673L11.1365 4.83248C11.0342 4.77328 10.9254 4.7333 10.8082 4.71637C10.6168 4.68872 10.4244 4.72641 10.2425 4.78556C10.0191 4.85822 9.79836 4.96383 9.58625 5.06461C9.55527 5.07928 9.52433 5.094 9.4933 5.10858L9.46484 5.12194L9.45087 5.15006C9.4019 5.24957 9.35408 5.34963 9.30744 5.45025C9.09373 5.90681 8.8197 6.51408 8.36047 6.762C7.98626 6.96403 7.44997 7.14248 7.05467 6.89376C6.95651 6.83203 6.8757 6.74597 6.81776 6.6457C6.71984 6.47634 6.69205 6.27816 6.70123 6.08517L6.80052 3.99516C6.80382 3.92275 6.83459 3.85432 6.88658 3.80381C7.06756 3.62855 7.24728 3.45202 7.42667 3.27516C7.50139 3.20147 7.57634 3.12806 7.65116 3.05442L7.75334 2.95378L5.74381 2.23598L3.3305 6.41672L4.73 8.1652L5.17925 7.52676C5.45187 7.1393 5.87211 6.9518 6.33936 7.05942C6.41258 7.07625 6.48416 7.10006 6.55297 7.13006C6.63038 7.16381 6.70419 7.20529 6.77328 7.25386C6.92562 7.36092 7.05467 7.50262 7.14444 7.66598L7.1908 7.75036L7.27184 7.69837C7.66297 7.44764 8.15689 7.49742 8.52711 7.75795C8.79472 7.94625 8.98916 8.23983 9.0268 8.56823L9.03631 8.65125L9.1198 8.64792C9.37991 8.63752 9.63973 8.72222 9.85175 8.87147C10.2941 9.18295 10.4894 9.7297 10.2616 10.2403L10.2184 10.3371L10.3209 10.364C10.5348 10.4203 10.7278 10.5354 10.8829 10.6927C11.2407 11.0557 11.3184 11.552 11.0768 12.002L11.0357 12.0786L12.1051 12.7012C12.2822 12.8043 12.4767 12.8307 12.6585 12.7243C12.7512 12.67 12.834 12.5827 12.888 12.4898C12.9421 12.3969 12.9772 12.282 12.9788 12.1745C12.9819 11.9639 12.8635 11.8077 12.6865 11.7043L12.6655 11.692H12.665L11.4371 10.9773C11.3012 10.8982 11.2557 10.7234 11.3347 10.5877C11.3535 10.5553 11.3784 10.527 11.4082 10.5044C11.4379 10.4817 11.4718 10.4651 11.5079 10.4555C11.5441 10.446 11.5818 10.4436 11.6188 10.4486C11.6559 10.4536 11.6916 10.4658 11.7239 10.4846L12.9707 11.2105C12.9725 11.2116 12.9743 11.2127 12.9762 11.2137L13.364 11.4394C13.5412 11.5425 13.7358 11.5689 13.9178 11.4624C14.0103 11.4083 14.0934 11.3208 14.1473 11.2279C14.2012 11.1348 14.2363 11.0202 14.2378 10.9127C14.2407 10.7061 14.1267 10.5519 13.9552 10.4486L13.9545 10.4479L12.4141 9.55083C12.2784 9.47184 12.2328 9.29648 12.3117 9.16097C12.3908 9.02517 12.5652 8.97956 12.701 9.05859L14.2529 9.96183H14.2533L14.7226 10.2356C14.8998 10.3389 15.0924 10.3629 15.2743 10.2588C15.4641 10.1503 15.595 9.92489 15.5958 9.70631C15.5966 9.49627 15.4811 9.34176 15.3035 9.23826L14.907 9.00717L13.3915 8.1247C13.2557 8.04562 13.2093 7.87092 13.2884 7.73503C13.3675 7.59923 13.5424 7.55283 13.6783 7.63195L15.1939 8.51461C15.3711 8.61783 15.5654 8.64389 15.7472 8.53701C15.8399 8.4825 15.9219 8.39545 15.9763 8.30259C16.0306 8.20983 16.0659 8.094 16.0673 7.98661C16.0702 7.77567 15.9511 7.61958 15.7734 7.51673Z" fill="white"/>
</svg>
