<svg width="22" height="15" viewBox="0 0 22 15" fill="none" xmlns="http://www.w3.org/2000/svg">
<path d="M21.6947 5.60055L18.7843 0.559661C18.6351 0.301333 18.3936 0.116411 18.1042 0.0388794C17.8146 -0.0387925 17.5131 0.000769861 17.2549 0.149879L15.5966 1.10725C15.3383 1.25641 15.1533 1.49791 15.0758 1.78732C15.0295 1.96005 15.0252 2.13705 15.0607 2.30669C14.0167 2.58143 12.9674 2.5789 11.7164 2.3035C10.3821 2.0096 9.73521 2.28818 8.85813 3.07211L6.77885 2.32933C6.88667 1.86222 6.68412 1.35911 6.2479 1.1073L4.5896 0.149879C4.33142 0.000769861 4.02982 -0.0386987 3.74027 0.0388794C3.45082 0.116411 3.20932 0.301379 3.06017 0.559661L0.149743 5.6006C-0.158882 6.13525 0.0249619 6.82136 0.559571 7.12999L2.21787 8.08741C2.38962 8.1866 2.58054 8.23727 2.77432 8.23722C2.87192 8.23722 2.97031 8.22443 3.06724 8.19841C3.32407 8.1296 3.54279 7.97589 3.69307 7.76177L4.93624 9.31422L4.90437 9.3596C4.4397 10.0202 4.70548 10.7238 5.20817 11.0775C5.39037 11.2057 5.60524 11.2891 5.82738 11.3118C5.80549 11.517 5.83906 11.7243 5.92962 11.9195C6.12134 12.333 6.53848 12.6264 6.99246 12.6671C7.16299 12.6824 7.32888 12.6611 7.48315 12.6063C7.57634 12.838 7.74101 13.0383 7.94445 13.1814C8.29456 13.4276 8.76551 13.5083 9.17613 13.3116C9.30424 13.5519 9.51415 13.7555 9.78452 13.8806C9.96059 13.962 10.1401 14.0016 10.3146 14.0015C10.6936 14.0015 11.0492 13.8149 11.295 13.4653L11.3928 13.3263L12.4328 13.9318C12.6512 14.0591 12.8677 14.1146 13.0716 14.1146C13.5191 14.1146 13.9058 13.8469 14.1184 13.4822C14.2293 13.2917 14.2938 13.0731 14.2987 12.8523C14.7591 12.8644 15.16 12.5938 15.3776 12.2202C15.4805 12.0436 15.5434 11.8427 15.556 11.6382C15.7995 11.6663 16.0424 11.6175 16.2621 11.4918C16.6576 11.2653 16.9142 10.8246 16.9159 10.3688C16.9167 10.1489 16.8583 9.94244 16.7482 9.76235C16.9379 9.649 17.0963 9.48489 17.2071 9.29444C17.4275 8.9155 17.4638 8.4251 17.2129 8.02741L18.0518 7.59907L18.0971 7.67763C18.2463 7.93591 18.4878 8.12088 18.7773 8.19841C18.8742 8.22443 18.9725 8.23722 19.0701 8.23722C19.2639 8.23722 19.4549 8.1866 19.6266 8.08741L21.2849 7.13004C21.8195 6.82136 22.0033 6.13525 21.6947 5.60055ZM2.87313 7.47391C2.77732 7.49979 2.67771 7.48685 2.59287 7.43786L0.934571 6.4804C0.75804 6.37854 0.697384 6.15199 0.799243 5.9755L3.70962 0.934614C3.7586 0.84977 3.83838 0.788973 3.93434 0.763239C3.96668 0.754567 3.99945 0.750301 4.03188 0.750301C4.09568 0.750301 4.15835 0.766895 4.21456 0.799332L5.87285 1.7568C6.04938 1.85866 6.11009 2.08516 6.00818 2.26169L3.09776 7.30263C3.04887 7.38743 2.96909 7.44827 2.87313 7.47391ZM5.63979 10.4641C5.57327 10.4173 5.25481 10.1649 5.51777 9.79104L6.37901 8.56666C6.64193 8.19288 6.98702 8.40715 7.05349 8.45383C7.12001 8.50061 7.43843 8.75257 7.17635 9.12626L7.17621 9.1264C7.17617 9.12649 7.17612 9.12658 7.17607 9.12663C7.17602 9.12672 7.17593 9.12682 7.17588 9.12691L6.31441 10.3516L6.31409 10.352C6.05107 10.7252 5.70621 10.5109 5.63979 10.4641ZM7.46913 11.7067C7.35926 11.8629 7.22135 11.9342 7.0594 11.9201C6.8734 11.9034 6.68862 11.7734 6.61006 11.604C6.54162 11.4564 6.56257 11.3024 6.6724 11.1462L6.92787 10.7831L7.78924 9.55844C7.78938 9.55826 7.78957 9.55807 7.78971 9.55788L7.78985 9.55765C7.7899 9.5576 7.7899 9.55755 7.78995 9.5575L8.13251 9.07043C8.39552 8.6966 8.74076 8.911 8.80727 8.95783C8.87379 9.00461 9.19231 9.25699 8.92934 9.63086L8.84421 9.75189L7.64023 11.4635L7.46913 11.7067ZM8.37588 12.5678C8.30937 12.5211 7.99099 12.2689 8.25345 11.8952L8.25363 11.8949C8.25368 11.8949 8.25368 11.8949 8.25368 11.8949C8.25373 11.8948 8.25373 11.8947 8.25377 11.8947L9.45706 10.184C9.4572 10.1838 9.45729 10.1837 9.45743 10.1835C9.72059 9.80988 10.0656 10.0245 10.1321 10.0712C10.1986 10.118 10.5169 10.3704 10.254 10.7442L9.94132 11.1887L9.12715 12.3462C9.12706 12.3463 9.12696 12.3465 9.12687 12.3466L9.05056 12.455C8.78749 12.8291 8.44235 12.6146 8.37588 12.5678ZM10.6815 13.0338C10.4805 13.3196 10.2305 13.2605 10.0993 13.1998C9.91807 13.116 9.76249 12.9263 9.78668 12.7122L10.5083 11.6863C10.7016 11.5912 10.9327 11.6736 11.0728 11.8158C11.1742 11.9187 11.3144 12.1342 11.1134 12.4199L10.6815 13.0338ZM16.5587 8.91733C16.5178 8.98755 16.2939 9.3265 15.8989 9.097L14.3833 8.21454C14.2043 8.11033 13.9747 8.17099 13.8706 8.34991C13.7663 8.52888 13.8269 8.75847 14.0059 8.86263L15.5214 9.745C15.5216 9.7451 15.5216 9.74519 15.5218 9.74524L15.9182 9.97605C16.0832 10.0721 16.1665 10.2033 16.1659 10.366C16.1651 10.5528 16.0515 10.748 15.8894 10.8408C15.7482 10.9216 15.5931 10.914 15.428 10.8179L14.9376 10.5323C14.9375 10.5322 14.9374 10.5321 14.9373 10.5321L14.9372 10.532L13.4064 9.64071C13.2273 9.53655 12.9978 9.59711 12.8936 9.77608C12.7894 9.95505 12.85 10.1846 13.029 10.2888L14.5592 11.1798C14.5594 11.1798 14.5595 11.18 14.5597 11.1801C14.9546 11.4102 14.7705 11.7724 14.7295 11.8427C14.6886 11.9129 14.4645 12.2518 14.0694 12.0218L13.6789 11.7943C13.6786 11.7942 13.6784 11.7941 13.6782 11.794C13.6781 11.7939 13.6781 11.7939 13.6781 11.7939L12.4295 11.0669C12.2504 10.9626 12.0209 11.0233 11.9168 11.2023C11.8125 11.3812 11.8731 11.6108 12.0521 11.715L13.3007 12.442L13.3013 12.4423C13.6953 12.6725 13.5112 13.0343 13.4704 13.1045C13.4294 13.1748 13.2053 13.5137 12.8103 13.2836L11.8162 12.7048C12.0727 12.227 11.9985 11.6865 11.6072 11.2893C11.434 11.1135 11.224 10.9951 11.0039 10.9371C11.265 10.3517 11.0062 9.76919 10.5638 9.45785C10.3359 9.2974 10.0564 9.20693 9.77632 9.21799C9.73526 8.8615 9.52559 8.54594 9.23885 8.34424C8.85312 8.07288 8.32043 8.00243 7.88356 8.28274C7.78704 8.10715 7.64843 7.95508 7.48484 7.8401C6.9821 7.4868 6.23018 7.47471 5.7657 8.13504L5.38563 8.67536L4.09896 7.06858L6.44445 3.00607L8.24801 3.65036C8.17531 3.72161 8.10082 3.79497 8.02343 3.87124C7.85417 4.03802 7.67913 4.21038 7.48409 4.39929C7.41556 4.46566 7.37492 4.55561 7.37037 4.65086L7.27109 6.74107C7.24545 7.28186 7.5079 7.53016 7.66662 7.63C8.01143 7.84694 8.50737 7.80119 9.06326 7.50119C9.53543 7.24629 9.80838 6.66307 10.0492 6.14852C10.0982 6.04404 10.1451 5.94372 10.1917 5.85021C10.2227 5.83554 10.2537 5.82086 10.2847 5.80614C10.9225 5.50338 11.3345 5.33004 11.7514 5.57074L16.3886 8.25494C16.7834 8.48486 16.5995 8.84707 16.5587 8.91733ZM16.5885 7.5041L12.1267 4.92147C11.3472 4.47143 10.6119 4.82069 9.96302 5.12866C9.89534 5.16082 9.82751 5.19302 9.75959 5.22433C9.6851 5.25869 9.62393 5.31654 9.58545 5.389C9.51138 5.5285 9.43948 5.68211 9.36992 5.83071C9.17824 6.24007 8.96107 6.70408 8.70682 6.84133C8.35962 7.02883 8.12946 7.0353 8.0659 6.99536C8.03881 6.9783 8.01415 6.9041 8.02015 6.77679L8.1124 4.83461C8.26957 4.68157 8.41685 4.53649 8.54965 4.40566C9.91142 3.0641 10.2349 2.74549 11.5551 3.03593C12.4589 3.23486 13.8176 3.43793 15.3926 2.99336L17.6762 6.94868L16.5885 7.5041ZM20.9098 6.48049L19.2515 7.43791C19.1667 7.48685 19.0672 7.49965 18.9713 7.47396C18.8754 7.44827 18.7956 7.38743 18.7466 7.30263L15.8362 2.26169C15.7873 2.1769 15.7745 2.07738 15.8002 1.98143C15.8259 1.88552 15.8867 1.80574 15.9715 1.75675L17.6298 0.799332C17.686 0.766895 17.7487 0.750301 17.8125 0.750301C17.8449 0.750301 17.8777 0.754614 17.91 0.763239C18.006 0.788973 18.0858 0.849817 18.1347 0.934614L21.0451 5.97546C21.147 6.15204 21.0864 6.37858 20.9098 6.48049Z" fill="black"/>
</svg>
