<svg width="24" height="24" viewBox="0 0 24 24" fill="none" xmlns="http://www.w3.org/2000/svg">
<g clip-path="url(#clip0_6996_1549)">
<path d="M19.9996 8C22.2056 8 23.9996 6.206 23.9996 4C23.9996 1.794 22.2056 0 19.9996 0C17.7936 0 15.9996 1.794 15.9996 4C15.9996 6.206 17.7936 8 19.9996 8ZM19.9996 2C21.1026 2 21.9996 2.897 21.9996 4C21.9996 5.103 21.1026 6 19.9996 6C18.8966 6 17.9996 5.103 17.9996 4C17.9996 2.897 18.8966 2 19.9996 2ZM23.2716 16.247L23.2666 16.228V16.227L21.6936 9.754C21.1556 9.912 20.5886 10.001 19.9996 10.001C19.8956 10.001 19.7946 9.991 19.6916 9.985L21.3286 16.72C21.3306 16.727 21.3356 16.732 21.3366 16.74H21.3326C21.4146 17.048 21.3536 17.355 21.1636 17.606C20.9716 17.861 20.6876 18.001 20.3676 18.001H3.49259C3.18759 18.001 2.90359 17.864 2.71459 17.63C2.52259 17.39 2.45059 17.082 2.50759 16.818L4.85959 7.701C5.60559 4.345 8.54159 2.001 11.9996 2.001C12.7726 2.001 13.5226 2.133 14.2316 2.362C14.4196 1.701 14.7156 1.087 15.1036 0.541C14.1246 0.193 13.0786 0.002 11.9996 0.002C7.59759 0 3.85859 2.988 2.91559 7.233L0.563591 16.352C0.366591 17.242 0.581591 18.163 1.15459 18.88C1.72759 19.592 2.58059 20 3.49259 20H7.10059C7.56559 22.279 9.58459 24 11.9996 24C14.4146 24 16.4336 22.279 16.8986 20H20.3686C21.3156 20 22.1856 19.567 22.7586 18.814C23.3146 18.081 23.4976 17.154 23.2726 16.264C23.2716 16.258 23.2726 16.253 23.2726 16.247H23.2716ZM11.9996 22C10.6976 22 9.59759 21.161 9.18359 20H14.8146C14.4006 21.161 13.3006 22 11.9986 22H11.9996Z" fill="#020202"/>
</g>
<defs>
<clipPath id="clip0_6996_1549">
<rect width="24" height="24" fill="white"/>
</clipPath>
</defs>
</svg>
