<svg width="15" height="15" viewBox="0 0 15 15" fill="none" xmlns="http://www.w3.org/2000/svg">
<path d="M8.89688 7.2L14.0484 2.04844C14.5172 1.57969 14.5172 0.820312 14.0484 0.351562C13.5797 -0.117188 12.8203 -0.117188 12.3516 0.351562L7.2 5.50313L2.04844 0.351562C1.57969 -0.117188 0.820312 -0.117188 0.351562 0.351562C-0.117188 0.820312 -0.117188 1.57969 0.351562 2.04844L5.50313 7.2L0.351562 12.3516C-0.117188 12.8203 -0.117188 13.5797 0.351562 14.0484C0.585938 14.2828 0.892969 14.4 1.2 14.4C1.50703 14.4 1.81406 14.2828 2.04844 14.0484L7.2 8.89688L12.3516 14.0484C12.5859 14.2828 12.893 14.4 13.2 14.4C13.507 14.4 13.8141 14.2828 14.0484 14.0484C14.5172 13.5797 14.5172 12.8203 14.0484 12.3516L8.89688 7.2Z" fill="black"/>
</svg>
