<svg width="24" height="15" viewBox="0 0 24 15" fill="none" xmlns="http://www.w3.org/2000/svg">
<path d="M1.7675 5.707L0.88375 6.414L0 5.707L0.88375 5L1.7675 5.707ZM23.0175 13.707C23.0175 13.9722 22.8858 14.2266 22.6514 14.4141C22.417 14.6016 22.099 14.707 21.7675 14.707C21.436 14.707 21.118 14.6016 20.8836 14.4141C20.6492 14.2266 20.5175 13.9722 20.5175 13.707H23.0175ZM7.13375 11.414L0.88375 6.414L2.65125 5L8.90125 10L7.13375 11.414ZM0.88375 5L7.13375 0L8.90125 1.414L2.65125 6.414L0.88375 5ZM1.7675 4.707H14.2675V6.707H1.7675V4.707ZM23.0175 11.707V13.707H20.5175V11.707H23.0175ZM14.2675 4.707C16.5881 4.707 18.8137 5.4445 20.4547 6.75725C22.0956 8.07001 23.0175 9.85048 23.0175 11.707H20.5175C20.5175 10.3809 19.859 9.10915 18.6869 8.17147C17.5148 7.23378 15.9251 6.707 14.2675 6.707V4.707Z" fill="#333333"/>
</svg>
