<svg width="24" height="24" viewBox="0 0 24 24" fill="none" xmlns="http://www.w3.org/2000/svg">
<g clip-path="url(#clip0_7382_2384)">
<path d="M1.85681 6.98703C1.49897 6.83614 1.08661 7.00414 0.935907 7.36203C0.513423 8.36483 0.230673 9.42266 0.0953449 10.5062C0.0432199 10.9238 0.368017 11.2965 0.793923 11.2965C1.14342 11.2965 1.44633 11.0361 1.49077 10.6804C1.61006 9.72472 1.85939 8.79195 2.23181 7.90789C2.38256 7.5501 2.21466 7.13778 1.85681 6.98703Z" fill="black"/>
<path d="M5.58281 20.4022C4.81622 19.8196 4.13302 19.1365 3.55224 18.3717C3.31735 18.0624 2.87616 18.0022 2.56702 18.2369C2.25774 18.4718 2.19741 18.9129 2.43225 19.2221C3.09019 20.0885 3.86395 20.8622 4.73203 21.5219C5.04075 21.7565 5.48194 21.6971 5.7173 21.3875C5.95219 21.0782 5.892 20.6371 5.58281 20.4022Z" fill="black"/>
<path d="M21.4785 4.77488C18.172 0.420379 12.3488 -1.14075 7.31707 0.978801C6.95918 1.12955 6.79127 1.54186 6.94207 1.89971C7.09282 2.25755 7.50499 2.42546 7.86298 2.27471C12.3021 0.404864 17.4406 1.78252 20.3585 5.62529C22.0578 7.86282 22.7847 10.631 22.4053 13.4199C21.464 20.3395 14.2054 24.3945 7.86302 21.7229C7.50504 21.5719 7.09277 21.74 6.94212 22.0979C6.79132 22.4558 6.95923 22.8681 7.31712 23.0188C14.5411 26.0618 22.7366 21.418 23.7988 13.6095C24.2287 10.4488 23.4047 7.31124 21.4785 4.77488Z" fill="black"/>
<path d="M1.49076 13.3172C1.44262 12.9319 1.09158 12.6587 0.705935 12.7066C0.320576 12.7547 0.0472005 13.1061 0.0953411 13.4915C0.230669 14.575 0.513466 15.6329 0.935904 16.6356C1.08572 16.9912 1.49667 17.1622 1.85681 17.0106C2.2147 16.8598 2.38261 16.4474 2.23181 16.0896C1.85939 15.2057 1.61011 14.2729 1.49076 13.3172Z" fill="black"/>
<path d="M2.56679 5.76019C2.87603 5.99522 3.31717 5.93499 3.55206 5.62585C4.13481 4.85907 4.81796 4.17582 5.58264 3.59522C5.89192 3.36038 5.95225 2.91929 5.7174 2.61001C5.4826 2.30072 5.04142 2.24035 4.73218 2.47524C3.86598 3.13294 3.09226 3.90671 2.4324 4.77497C2.19746 5.08416 2.2576 5.5253 2.56679 5.76019Z" fill="black"/>
<path d="M20.3945 11.998C20.3945 7.34561 16.6095 3.56055 11.957 3.56055C7.30459 3.56055 3.51953 7.34561 3.51953 11.998C3.51953 16.6505 7.30459 20.4355 11.957 20.4355C16.6095 20.4355 20.3945 16.6505 20.3945 11.998ZM4.92578 11.998C4.92578 8.12102 8.08 4.9668 11.957 4.9668C15.8341 4.9668 18.9883 8.12102 18.9883 11.998C18.9883 15.8751 15.8341 19.0293 11.957 19.0293C8.08 19.0293 4.92578 15.8751 4.92578 11.998Z" fill="black"/>
<path d="M12.6602 11.998V7.07617C12.6602 6.68786 12.3454 6.37305 11.957 6.37305C11.5687 6.37305 11.2539 6.68786 11.2539 7.07617V11.7514L8.5955 15.0745C8.35292 15.3777 8.40209 15.8201 8.70533 16.0627C9.00837 16.3052 9.45088 16.2564 9.69359 15.9529L12.5061 12.4373C12.6058 12.3126 12.6602 12.1577 12.6602 11.998Z" fill="black"/>
</g>
<defs>
<clipPath id="clip0_7382_2384">
<rect width="24" height="24" fill="white"/>
</clipPath>
</defs>
</svg>
