<svg width="24" height="24" viewBox="0 0 24 24" fill="none" xmlns="http://www.w3.org/2000/svg">
<mask id="mask0_11706_205" style="mask-type:luminance" maskUnits="userSpaceOnUse" x="0" y="0" width="24" height="24">
<path d="M0 1.90735e-06H24V24H0V1.90735e-06Z" fill="white"/>
</mask>
<g mask="url(#mask0_11706_205)">
<path d="M19.125 11.8898C19.125 12.0463 19.064 12.1935 18.9532 12.3042L15.7433 15.5113C15.6323 15.6222 15.4848 15.6833 15.3277 15.6833H8.67225C8.51526 15.6833 8.36766 15.6222 8.2567 15.5114L5.04684 12.3042C4.93603 12.1935 4.875 12.0463 4.875 11.8898V5.23603C4.875 5.08064 4.93528 4.93425 5.04473 4.82377L8.25839 1.58025C8.36798 1.46967 8.52023 1.40625 8.67605 1.40625H15.324C15.4798 1.40625 15.632 1.46967 15.7416 1.58025L18.9553 4.82377C19.0647 4.93425 19.125 5.08064 19.125 5.23603V11.8898ZM13.108 21.4958C13.108 22.1012 12.6155 22.5937 12.0101 22.5937H11.9899C11.3845 22.5937 10.892 22.1012 10.892 21.4958V17.0895H13.108V21.4958ZM19.9542 3.834L16.7406 0.590532C16.3687 0.215204 15.8524 1.90735e-06 15.324 1.90735e-06H8.67605C8.14762 1.90735e-06 7.6313 0.215204 7.25948 0.590485L4.04583 3.834C3.67369 4.20956 3.46875 4.70747 3.46875 5.23603V11.8898C3.46875 12.4221 3.67622 12.9226 4.05291 13.299L7.26272 16.5061C7.63927 16.8824 8.13984 17.0895 8.67225 17.0895H9.48572V21.4958C9.48572 22.8766 10.6091 24 11.9899 24H12.0101C13.3909 24 14.5143 22.8766 14.5143 21.4958V17.0895H15.3277C15.8602 17.0895 16.3607 16.8824 16.7373 16.5061L19.9471 13.299C20.3238 12.9226 20.5312 12.4222 20.5312 11.8898V5.23603C20.5312 4.70747 20.3263 4.20956 19.9542 3.834Z" fill="black"/>
<path d="M8.62678 10.2891H8.13281V9.30117H8.62678C8.89917 9.30117 9.12075 9.52275 9.12075 9.79514C9.12075 10.0675 8.89917 10.2891 8.62678 10.2891ZM8.13281 6.90703H8.62678C8.89917 6.90703 9.12075 7.12861 9.12075 7.401C9.12075 7.67334 8.89917 7.89492 8.62678 7.89492H8.13281V6.90703ZM8.62678 5.50078H7.42969C7.04137 5.50078 6.72656 5.81559 6.72656 6.20391V10.9922C6.72656 11.3805 7.04137 11.6953 7.42969 11.6953H8.62678C9.67458 11.6953 10.527 10.8429 10.527 9.79514C10.527 9.34181 10.3674 8.92505 10.1014 8.59805C10.3674 8.27109 10.527 7.85433 10.527 7.401C10.527 6.3532 9.67458 5.50078 8.62678 5.50078Z" fill="black"/>
<path d="M11.9766 5.50078C11.5882 5.50078 11.2734 5.81559 11.2734 6.20391V10.9922C11.2734 11.3805 11.5882 11.6953 11.9766 11.6953C12.3649 11.6953 12.6797 11.3805 12.6797 10.9922V6.20391C12.6797 5.81559 12.3649 5.50078 11.9766 5.50078Z" fill="black"/>
<path d="M15.8707 9.96408C15.8707 10.1433 15.7249 10.2891 15.5457 10.2891H14.8828V6.90703H15.5457C15.7249 6.90703 15.8707 7.05281 15.8707 7.23197V9.96408ZM15.5457 5.50078H14.1797C13.7914 5.50078 13.4766 5.81559 13.4766 6.20391V10.9922C13.4766 11.3805 13.7914 11.6953 14.1797 11.6953H15.5457C16.5003 11.6953 17.277 10.9187 17.277 9.96408V7.23197C17.277 6.27741 16.5003 5.50078 15.5457 5.50078Z" fill="black"/>
</g>
</svg>
