<svg width="32" height="29" viewBox="0 0 32 29" fill="none" xmlns="http://www.w3.org/2000/svg">
<path fill-rule="evenodd" clip-rule="evenodd" d="M7.84834 25.3163L8.28611 26.0898C8.28636 26.0902 8.28661 26.0906 8.2868 26.091C8.63366 26.7079 8.41374 27.4951 7.80034 27.8416L6.30782 28.6875C6.30732 28.6877 6.30682 28.6881 6.30632 28.6883C5.68941 29.0352 4.90227 28.8152 4.55567 28.2016L0.166646 20.4463C-0.183283 19.829 0.0366381 19.0411 0.650724 18.6941L2.145 17.8482L2.14544 17.848C2.75927 17.5013 3.54679 17.7192 3.89634 18.3331L3.89697 18.3342L4.2553 18.9673L8.18735 16.6908C8.82566 16.3217 9.47143 16.0221 10.1352 15.8942V2.01355C10.1352 1.73634 10.36 1.51159 10.6372 1.51159H20.8558C21.1328 1.51159 21.3577 1.73653 21.3577 2.01355C21.3577 2.29064 21.1328 2.51551 20.8558 2.51551H11.1391V15.8433C11.3673 15.8659 11.598 15.9133 11.8318 15.9892C13.0891 16.3969 15.142 17.2756 17.2369 17.6541C17.259 17.6582 17.2808 17.6636 17.3022 17.6706C17.3332 17.6806 17.3639 17.6913 17.3941 17.7025H22.3673C22.6443 17.7025 22.8693 17.9275 22.8693 18.2045V18.2054L24.5517 17.2255C24.6601 17.1624 24.7665 17.1032 24.8708 17.0478V11.2429C24.8708 10.9658 25.0957 10.7409 25.3727 10.7409C25.6498 10.7409 25.8747 10.9658 25.8747 11.2429V16.6049C27.0665 16.195 27.914 16.3507 28.4528 16.7122C29.0689 17.1256 29.3538 17.8317 29.3355 18.5245C29.3169 19.2242 28.9844 19.8931 28.4357 20.231L18.779 26.1766C17.7697 26.7994 16.6641 26.9456 15.5187 26.64L15.5182 26.6399L8.7141 24.8164L7.84834 25.3163ZM4.74974 19.8411L7.35385 24.4425L8.39221 23.8429C8.50748 23.7764 8.64451 23.7584 8.77314 23.7928L15.7777 25.67C16.6466 25.9019 17.4859 25.7948 18.2517 25.3222L18.2522 25.3219L27.9093 19.3762C28.1661 19.218 28.3009 18.9006 28.3277 18.5749C28.3691 18.0737 28.1331 17.5208 27.5131 17.3909C26.9452 17.272 26.1453 17.459 25.057 18.093L19.7353 21.1924C18.8875 21.6865 17.9989 21.8229 17.0306 21.6688C17.03 21.6686 17.0295 21.6686 17.0288 21.6685L16.369 21.5611C16.3688 21.561 16.3686 21.561 16.3684 21.561C16.3616 21.5599 16.3548 21.5587 16.3481 21.5573C16.3479 21.5572 16.3477 21.5571 16.3474 21.5571C15.1469 21.3107 14.0336 20.948 12.798 20.616C12.5305 20.5441 12.3717 20.2685 12.4436 20.0009C12.5155 19.7334 12.7911 19.5745 13.0586 19.6464C14.2668 19.9711 15.3559 20.3272 16.5289 20.5695C17.1393 20.6376 17.5851 20.3832 17.7254 19.8606L17.7255 19.8604C17.8679 19.3309 17.5367 18.8169 17.022 18.6354C14.8895 18.2444 12.8021 17.3592 11.5219 16.9441L11.5218 16.9441C10.5199 16.6187 9.60213 17.0323 8.69 17.5598L4.74974 19.8411ZM18.541 18.7064C18.7597 19.1278 18.8287 19.6239 18.695 20.1211C18.6451 20.307 18.5767 20.4779 18.491 20.6321C18.7428 20.5668 18.9886 20.4656 19.2299 20.325L22.0089 18.7064H18.541ZM3.02374 18.8296L3.02337 18.8289C2.94625 18.6947 2.77389 18.6461 2.63924 18.7221L1.14534 19.5678L1.1449 19.5681C1.01063 19.6439 0.963571 19.8163 1.04006 19.9513L1.04018 19.9516L5.42939 27.7071L5.42958 27.7075C5.50563 27.8422 5.67855 27.8893 5.81396 27.8135L7.30534 26.9682L7.30597 26.9678C7.44068 26.8917 7.48781 26.7187 7.41188 26.5833L3.02374 18.8296ZM2.4404 19.6587C2.7791 19.6082 3.0937 19.8421 3.14409 20.1809C3.19247 20.5197 2.95855 20.8362 2.61985 20.8846C2.28109 20.935 1.96655 20.6991 1.91617 20.3603C1.86773 20.0216 2.10164 19.707 2.4404 19.6587ZM13.6446 8.42598C13.3676 8.42598 13.1426 8.20104 13.1426 7.92402C13.1426 7.647 13.3676 7.42205 13.6446 7.42205H20.8558C21.1328 7.42205 21.3577 7.647 21.3577 7.92402C21.3577 8.20104 21.1328 8.42598 20.8558 8.42598H13.6446ZM13.6446 10.9946C13.3676 10.9946 13.1426 10.7698 13.1426 10.4927C13.1426 10.2157 13.3676 9.99072 13.6446 9.99072H22.3673C22.6443 9.99072 22.8693 10.2157 22.8693 10.4927C22.8693 10.7698 22.6443 10.9946 22.3673 10.9946H13.6446ZM13.6446 13.5652C13.3676 13.5652 13.1426 13.3404 13.1426 13.0633C13.1426 12.7863 13.3676 12.5613 13.6446 12.5613H22.3673C22.6443 12.5613 22.8693 12.7863 22.8693 13.0633C22.8693 13.3404 22.6443 13.5652 22.3673 13.5652H13.6446ZM13.6446 16.1358C13.3676 16.1358 13.1426 15.911 13.1426 15.6339C13.1426 15.3569 13.3676 15.1319 13.6446 15.1319H22.3673C22.6443 15.1319 22.8693 15.3569 22.8693 15.6339C22.8693 15.911 22.6443 16.1358 22.3673 16.1358H13.6446ZM13.6446 5.85537C13.3676 5.85537 13.1426 5.63043 13.1426 5.35341C13.1426 5.07639 13.3676 4.85145 13.6446 4.85145H19.9049C20.182 4.85145 20.4069 5.07639 20.4069 5.35341C20.4069 5.63043 20.182 5.85537 19.9049 5.85537H13.6446ZM27.2363 0.863122C27.522 0.949396 27.7981 1.06384 28.0614 1.20502L28.591 0.969537C28.7808 0.885145 29.003 0.926369 29.1499 1.07325L30.048 1.97139C30.1947 2.11815 30.236 2.33995 30.152 2.52963C30.152 2.52963 29.9173 3.05951 29.9173 3.05945C30.0587 3.32311 30.1734 3.59981 30.2597 3.88649L30.7996 4.09431C30.9934 4.16885 31.1213 4.35507 31.1213 4.56276V5.83322C31.1213 6.04085 30.9934 6.22707 30.7996 6.30168C30.7996 6.30168 30.2594 6.50962 30.2594 6.50955C30.1729 6.79523 30.058 7.0715 29.9171 7.33471L30.152 7.86504C30.236 8.05471 30.1947 8.27658 30.048 8.42328L29.1499 9.32141C29.0032 9.46811 28.7813 9.50946 28.5916 9.42538L28.062 9.19084C27.799 9.33208 27.5222 9.44659 27.2361 9.53293L27.0283 10.073C26.9537 10.2669 26.7674 10.3947 26.5598 10.3947H25.2893C25.0817 10.3947 24.8955 10.2669 24.8209 10.073C24.8209 10.073 24.613 9.53299 24.6131 9.53299C24.3266 9.44646 24.05 9.33151 23.7866 9.19053L23.2563 9.42538C23.0665 9.50946 22.8447 9.46811 22.698 9.32141L21.7999 8.42328C21.653 8.27639 21.6117 8.05421 21.6962 7.86441C21.6962 7.86441 21.9315 7.33503 21.9315 7.33509C21.7904 7.07219 21.6758 6.79561 21.589 6.5098L21.0482 6.30168C20.8545 6.22707 20.7266 6.04085 20.7266 5.83322V4.56276C20.7266 4.35507 20.8545 4.16885 21.0482 4.09431L21.5888 3.88624C21.6757 3.59981 21.7903 3.32329 21.9316 3.05989L21.6962 2.53032C21.6117 2.34052 21.653 2.11827 21.7999 1.97139L22.698 1.07325C22.8449 0.926369 23.0671 0.885145 23.2569 0.969537L23.7865 1.20502C24.0499 1.06378 24.3262 0.949271 24.612 0.862996L24.8211 0.321192C24.8957 0.127623 25.0818 0 25.2893 0H26.5598C26.7676 0 26.9538 0.127937 27.0284 0.321882L27.2363 0.863122ZM26.3906 1.46115L26.215 1.00392H25.6337L25.457 1.46177C25.3975 1.61613 25.2657 1.7312 25.1047 1.76947C24.7423 1.85562 24.3965 1.99881 24.0788 2.19464C23.9377 2.28154 23.7629 2.29321 23.6115 2.22594L23.1641 2.02698L22.7536 2.43746L22.9525 2.88496C23.0199 3.0363 23.0081 3.21117 22.9212 3.35222C22.7252 3.67034 22.5819 4.0165 22.4945 4.38055C22.456 4.54111 22.3409 4.6725 22.1867 4.73186L21.7305 4.90742V5.48856L22.1867 5.66413C22.3408 5.72342 22.4558 5.85462 22.4944 6.01512C22.5818 6.37785 22.7249 6.72496 22.9208 7.04182C23.0081 7.18293 23.02 7.35812 22.9525 7.50971L22.7536 7.95721L23.1645 8.36806L23.6122 8.16973C23.763 8.1029 23.9371 8.11451 24.0777 8.20066C24.3958 8.39555 24.7417 8.54017 25.1057 8.62645C25.2669 8.6646 25.3989 8.77992 25.4584 8.93459L25.634 9.39081H26.2151L26.3907 8.93459C26.4502 8.78005 26.582 8.66478 26.7431 8.62651C27.1054 8.54042 27.452 8.39743 27.7684 8.20179C27.9093 8.11464 28.0842 8.10265 28.2357 8.16973L28.6834 8.36806L29.0946 7.95683L28.8964 7.50908C28.8295 7.35824 28.8411 7.18425 28.9273 7.04358C29.1222 6.72546 29.2669 6.37942 29.3531 6.0165C29.3914 5.85544 29.5066 5.72361 29.6612 5.66413L30.1174 5.48856V4.90742L29.6612 4.73186C29.5065 4.67231 29.3912 4.5403 29.353 4.37911C29.2669 4.01556 29.1237 3.6699 28.9279 3.35222C28.8412 3.21136 28.8294 3.03686 28.8964 2.88558L29.0946 2.43784L28.6838 2.02698L28.2364 2.22594C28.085 2.29321 27.9101 2.28154 27.7691 2.19464C27.4513 1.99881 27.1056 1.85562 26.7431 1.76947C26.582 1.73114 26.4501 1.61575 26.3906 1.46115ZM25.9239 2.47944C27.4256 2.47944 28.6431 3.69569 28.6431 5.19736C28.6431 6.69892 27.4255 7.91649 25.9239 7.91649C24.4223 7.91649 23.2061 6.69898 23.2061 5.19736C23.2061 3.69562 24.4222 2.47944 25.9239 2.47944ZM25.9239 3.48336C24.9769 3.48336 24.21 4.25029 24.21 5.19736C24.21 6.14444 24.9768 6.91257 25.9239 6.91257C26.8711 6.91257 27.6392 6.1445 27.6392 5.19736C27.6392 4.25023 26.871 3.48336 25.9239 3.48336Z" fill="black"/>
</svg>
