<svg width="31" height="28" viewBox="0 0 31 28" fill="none" xmlns="http://www.w3.org/2000/svg">
<path fill-rule="evenodd" clip-rule="evenodd" d="M16.8924 17.2006C16.8622 17.1893 16.8315 17.1787 16.8006 17.1686C16.7792 17.1617 16.7573 17.1562 16.7352 17.1522C14.6403 16.7736 12.5874 15.895 11.3301 15.4872C10.9236 15.3552 10.5261 15.3095 10.1355 15.3301V1.95081C10.1355 1.83435 10.1818 1.7226 10.2642 1.64028C10.3466 1.5579 10.4582 1.51159 10.5748 1.51159H21.0165C20.9407 1.74318 20.9498 1.99987 21.0532 2.23228L21.192 2.5445C21.1215 2.69346 21.0583 2.8458 21.0026 3.0011C21.0027 3.0011 20.6836 3.12389 20.6836 3.12389C20.296 3.27304 20.0403 3.64549 20.0403 4.0608V5.33126C20.0403 5.74657 20.296 6.11903 20.6836 6.26817L21.0029 6.39109C21.0585 6.54594 21.1215 6.69798 21.1919 6.84662C21.1919 6.84662 21.1781 6.87762 21.1592 6.92009H13.1429C12.8659 6.92009 12.641 7.14503 12.641 7.42205C12.641 7.69914 12.8659 7.92402 13.1429 7.92402H21.0324C21.0818 8.05365 21.1584 8.17405 21.2606 8.27627L22.1588 9.1744C22.4522 9.4678 22.8958 9.55043 23.2752 9.3824L23.5886 9.24361C23.7377 9.31419 23.8902 9.37744 24.0456 9.4331L24.1681 9.7514C24.2886 10.0643 24.5545 10.2913 24.871 10.3671V16.301C24.6117 16.4159 24.3381 16.5557 24.05 16.7236L22.3676 17.7035V17.7026C22.3676 17.4255 22.1426 17.2006 21.8656 17.2006H16.8924ZM13.1429 10.4927H21.8656C22.1426 10.4927 22.3676 10.2678 22.3676 9.99078C22.3676 9.71369 22.1426 9.48882 21.8656 9.48882H13.1429C12.8659 9.48882 12.641 9.71369 12.641 9.99078C12.641 10.2678 12.8659 10.4927 13.1429 10.4927ZM13.1429 13.0633H21.8656C22.1426 13.0633 22.3676 12.8384 22.3676 12.5614C22.3676 12.2843 22.1426 12.0594 21.8656 12.0594H13.1429C12.8659 12.0594 12.641 12.2843 12.641 12.5614C12.641 12.8384 12.8659 13.0633 13.1429 13.0633ZM13.1429 15.6339H21.8656C22.1426 15.6339 22.3676 15.409 22.3676 15.132C22.3676 14.8549 22.1426 14.63 21.8656 14.63H13.1429C12.8659 14.63 12.641 14.8549 12.641 15.132C12.641 15.409 12.8659 15.6339 13.1429 15.6339ZM13.1429 5.35341H19.4032C19.6803 5.35341 19.9052 5.12853 19.9052 4.85145C19.9052 4.57443 19.6803 4.34949 19.4032 4.34949H13.1429C12.8659 4.34949 12.641 4.57443 12.641 4.85145C12.641 5.12853 12.8659 5.35341 13.1429 5.35341ZM26.6749 0.779169C27.0894 0.877678 27.4847 1.04144 27.8481 1.26532L28.6106 0.926243L29.5087 1.82444L29.171 2.58692C29.3949 2.95027 29.5587 3.34563 29.6572 3.76144L30.435 4.0608V5.33126L29.6572 5.63062C29.5587 6.04518 29.3936 6.44047 29.171 6.80383L29.5087 7.56637L28.6106 8.4645L27.8481 8.12674C27.486 8.35062 27.0894 8.51438 26.6749 8.61289L26.3755 9.39081H25.105L24.8057 8.61289C24.3898 8.51438 23.9945 8.34936 23.6312 8.12674L22.8687 8.4645L21.9705 7.56637L22.3095 6.80383C22.0857 6.44179 21.9219 6.04518 21.8221 5.63062L21.0442 5.33126V4.0608L21.8221 3.76144C21.9219 3.34563 22.0857 2.95027 22.3095 2.58692L21.9705 1.82444L22.8687 0.926243L23.6312 1.26532C23.9945 1.04144 24.3898 0.877678 24.8044 0.779169L25.105 0H26.3755L26.6749 0.779169ZM25.7396 2.47944C24.5152 2.47944 23.5237 3.471 23.5237 4.6954C23.5237 5.91975 24.5152 6.91256 25.7396 6.91256C26.964 6.91256 27.9568 5.91975 27.9568 4.6954C27.9568 3.471 26.964 2.47944 25.7396 2.47944ZM4.68249 19.0877L8.18831 17.0579C9.10043 16.5304 10.0182 16.1168 11.0201 16.4421L11.0202 16.4422C12.3004 16.8573 14.3878 17.7424 16.5203 18.1335C17.035 18.3149 17.3662 18.829 17.2238 19.3584L17.2237 19.3587C17.0834 19.8813 16.6376 20.1357 16.0272 20.0676C14.8542 19.8253 13.7652 19.4692 12.5569 19.1445C12.2894 19.0726 12.0138 19.2314 11.9419 19.499C11.87 19.7665 12.0288 20.0421 12.2964 20.114C13.5319 20.4461 14.6452 20.8087 15.8457 21.0552L15.8464 21.0553C15.8531 21.0567 15.8599 21.0579 15.8667 21.0591L16.5271 21.1665C16.5278 21.1666 16.5283 21.1667 16.5289 21.1668C17.4972 21.3209 18.3858 21.1845 19.2336 20.6904L24.5553 17.5911C25.6436 16.9571 26.4435 16.77 27.0114 16.889C27.6314 17.0189 27.8674 17.5718 27.826 18.073C27.7992 18.3986 27.6644 18.716 27.4076 18.8742L17.7505 24.82L17.75 24.8203C16.9842 25.2929 16.1449 25.3999 15.276 25.1681L8.27145 23.2909C8.14282 23.2564 8.00578 23.2744 7.89052 23.3411L7.28691 23.6896L4.68249 19.0877ZM2.95844 18.0796L7.34759 25.8351C7.55904 26.2113 7.42558 26.6914 7.05118 26.9029L5.55866 27.7488C5.18244 27.9603 4.70232 27.8268 4.4908 27.4524L0.101657 19.6969C-0.111551 19.3207 0.0219081 18.8405 0.396371 18.629L1.89058 17.7831C2.26505 17.5716 2.74523 17.7051 2.95844 18.0796ZM1.93871 19.1567C1.59995 19.2051 1.36603 19.5196 1.41447 19.8584C1.46486 20.1971 1.7794 20.4331 2.11816 20.3826C2.45692 20.3342 2.69077 20.0177 2.64239 19.6789C2.59201 19.3402 2.27741 19.1063 1.93871 19.1567Z" fill="#F2F2F2"/>
</svg>
