<svg width="22" height="22" viewBox="0 0 22 22" fill="none" xmlns="http://www.w3.org/2000/svg">
<path d="M10.3361 15.0132H11.662C12.1108 15.0132 12.4848 14.6664 12.5188 14.2244L13.5319 1.88303C13.5591 1.52267 13.3619 1.18268 13.0355 1.03307C11.7925 0.412946 10.3401 0.386555 9.08493 0.978709C8.70731 1.10849 8.43084 1.4692 8.473 1.88304C8.47299 1.88304 9.47933 14.2245 9.47933 14.2245C9.52013 14.6665 9.89408 15.0132 10.3361 15.0132Z" fill="#353535"/>
<path d="M13.0088 20.7705C12.9518 16.7759 13.6479 17.4762 9.65651 17.4183C9.28256 17.4183 8.97656 17.7243 8.97656 18.0983V20.7705C8.97656 21.1445 9.28255 21.4505 9.65653 21.4505H12.3288C12.7028 21.4505 13.0088 21.1445 13.0088 20.7705Z" fill="#353535"/>
</svg>
