<svg width="12" height="12" viewBox="0 0 12 12" fill="none" xmlns="http://www.w3.org/2000/svg">
<path fill-rule="evenodd" clip-rule="evenodd" d="M0.292878 11.6075C0.683406 11.998 1.31657 11.998 1.7071 11.6075L9.91421 3.40038V9.5009C9.91421 10.0532 10.3619 10.5009 10.9142 10.5009C11.4665 10.5009 11.9142 10.0532 11.9142 9.5009V1.00089C11.9142 0.448599 11.4665 0.000902176 10.9142 0.000902176H10.9002C10.8997 0.000902176 10.8993 0.000902176 10.8988 0.000902176H2.41421C1.86193 0.000902176 1.41421 0.448599 1.41421 1.00089C1.41421 1.55317 1.86193 2.0009 2.41421 2.0009H8.48528L0.292878 10.1933C-0.097626 10.5838 -0.097626 11.217 0.292878 11.6075Z" fill="#8B8B8B"/>
</svg>
