<svg width="46" height="46" viewBox="0 0 46 46" fill="none" xmlns="http://www.w3.org/2000/svg">
<circle cx="23" cy="23" r="23" fill="#FFEAD6"/>
<g clip-path="url(#clip0_7948_471)">
<path d="M20.5815 15.03C20.5815 14.4801 21.0273 14.0343 21.5772 14.0343H33.4059C33.9558 14.0343 34.4016 14.4801 34.4016 15.03C34.4016 15.5799 33.9558 16.0256 33.4059 16.0256H21.5772C21.0273 16.0256 20.5815 15.5799 20.5815 15.03ZM16.7183 12.3217L14.2191 15.488L13.4425 14.4923C13.1518 14.0255 12.5377 13.8828 12.0709 14.1736C11.6042 14.4643 11.4615 15.0784 11.7522 15.5452C11.7837 15.5956 11.8195 15.6431 11.8594 15.6871L13.4126 17.7183C13.5964 17.9635 13.8829 18.1104 14.1893 18.1166C14.4957 18.1182 14.7859 17.9787 14.9759 17.7382L18.2716 13.5563C18.6082 13.1242 18.5325 12.5014 18.1023 12.1624C17.6744 11.8302 17.0595 11.901 16.7183 12.3217ZM33.4059 21.9997H21.5772C21.0273 21.9997 20.5815 22.4455 20.5815 22.9954C20.5815 23.5453 21.0273 23.9911 21.5772 23.9911H33.4059C33.9558 23.9911 34.4016 23.5453 34.4016 22.9954C34.4016 22.4455 33.9558 21.9997 33.4059 21.9997ZM33.4059 29.9651H21.5772C21.0273 29.9651 20.5815 30.4109 20.5815 30.9608C20.5815 31.5107 21.0273 31.9565 21.5772 31.9565H33.4059C33.9558 31.9565 34.4016 31.5107 34.4016 30.9608C34.4016 30.4109 33.9558 29.9651 33.4059 29.9651ZM17.1663 27.8742H12.9845C12.4346 27.8742 11.9888 28.32 11.9888 28.8699V33.0518C11.9888 33.6017 12.4346 34.0474 12.9845 34.0474H17.1663C17.7162 34.0474 18.162 33.6017 18.162 33.0518V28.8699C18.162 28.32 17.7162 27.8742 17.1663 27.8742ZM17.1663 19.9088H12.9845C12.4346 19.9088 11.9888 20.3546 11.9888 20.9045V25.0863C11.9888 25.6362 12.4346 26.082 12.9845 26.082H17.1663C17.7162 26.082 18.162 25.6362 18.162 25.0863V20.9045C18.162 20.3546 17.7162 19.9088 17.1663 19.9088Z" fill="#EB7200"/>
</g>
<defs>
<clipPath id="clip0_7948_471">
<rect width="24" height="24" fill="white" transform="translate(11 11)"/>
</clipPath>
</defs>
</svg>
