<svg width="24" height="24" viewBox="0 0 24 24" fill="none" xmlns="http://www.w3.org/2000/svg">
<path fill-rule="evenodd" clip-rule="evenodd" d="M6.00006 2.75C4.20513 2.75 2.75006 4.20507 2.75006 6V13.6158L5.37729 15.5074C6.61813 16.4008 8.31392 16.3085 9.45042 15.2857L13.5462 11.5994C15.2073 10.1045 17.6857 9.96952 19.4993 11.2753L21.2501 12.5358V10C21.2501 9.58579 21.5858 9.25 22.0001 9.25C22.4143 9.25 22.7501 9.58579 22.7501 10V13.9915V14.0098V18C22.7501 20.6234 20.6234 22.75 18.0001 22.75H6.00006C3.3767 22.75 1.25006 20.6234 1.25006 18V14.0085C1.24998 14.0024 1.24998 13.9963 1.25006 13.9902V6C1.25006 3.37665 3.3767 1.25 6.00006 1.25H14.0001C14.4143 1.25 14.7501 1.58579 14.7501 2C14.7501 2.41421 14.4143 2.75 14.0001 2.75H6.00006ZM2.75006 15.4642V18C2.75006 19.7949 4.20513 21.25 6.00006 21.25H18.0001C19.795 21.25 21.2501 19.7949 21.2501 18V14.3842L18.6228 12.4926C17.382 11.5992 15.6862 11.6915 14.5497 12.7143L10.4539 16.4006C8.79283 17.8955 6.31437 18.0305 4.50083 16.7247L2.75006 15.4642ZM19.0001 1.25C19.4143 1.25 19.7501 1.58579 19.7501 2V4.25H22.0001C22.4143 4.25 22.7501 4.58579 22.7501 5C22.7501 5.41421 22.4143 5.75 22.0001 5.75H19.7501V8C19.7501 8.41421 19.4143 8.75 19.0001 8.75C18.5858 8.75 18.2501 8.41421 18.2501 8V5.75H16.0001C15.5858 5.75 15.2501 5.41421 15.2501 5C15.2501 4.58579 15.5858 4.25 16.0001 4.25H18.2501V2C18.2501 1.58579 18.5858 1.25 19.0001 1.25ZM8.50006 6.75C7.53356 6.75 6.75006 7.5335 6.75006 8.5C6.75006 9.4665 7.53356 10.25 8.50006 10.25C9.46655 10.25 10.2501 9.4665 10.2501 8.5C10.2501 7.5335 9.46655 6.75 8.50006 6.75ZM5.25006 8.5C5.25006 6.70507 6.70513 5.25 8.50006 5.25C10.295 5.25 11.7501 6.70507 11.7501 8.5C11.7501 10.2949 10.295 11.75 8.50006 11.75C6.70513 11.75 5.25006 10.2949 5.25006 8.5Z" fill="#8B8B8B"/>
</svg>
