<svg width="20" height="20" viewBox="0 0 20 20" fill="none" xmlns="http://www.w3.org/2000/svg">
<path d="M18.5348 1.46447C17.0704 -1.19209e-07 14.7133 0 9.9993 0C5.28525 0 2.92823 -1.19209e-07 1.46377 1.46447C0.706282 2.22195 0.340603 3.21824 0.164062 4.65598C0.694733 4.06532 1.33236 3.57328 2.04836 3.20846C2.82984 2.81027 3.66664 2.6488 4.59316 2.5731C5.48829 2.49997 6.58971 2.49998 7.93646 2.5H12.0621C13.4089 2.49998 14.5103 2.49997 15.4054 2.5731C16.332 2.6488 17.1688 2.81027 17.9502 3.20846C18.6662 3.57328 19.3039 4.06532 19.8345 4.65598C19.658 3.21824 19.2923 2.22195 18.5348 1.46447Z" fill="#12141D"/>
<path fill-rule="evenodd" clip-rule="evenodd" d="M0 12C0 9.1997 5.96046e-08 7.79961 0.54497 6.73005C1.02433 5.78924 1.78924 5.02433 2.73005 4.54497C3.79961 4 5.19974 4 8 4H12C14.8003 4 16.2004 4 17.27 4.54497C18.2108 5.02433 18.9757 5.78924 19.455 6.73005C20 7.79961 20 9.1997 20 12C20 14.8003 20 16.2004 19.455 17.27C18.9757 18.2108 18.2108 18.9757 17.27 19.455C16.2004 20 14.8003 20 12 20H8C5.19974 20 3.79961 20 2.73005 19.455C1.78924 18.9757 1.02433 18.2108 0.54497 17.27C5.96046e-08 16.2004 0 14.8003 0 12ZM10.5303 8.4697C10.3897 8.329 10.1989 8.25 10 8.25C9.8011 8.25 9.6103 8.329 9.4697 8.4697L6.96967 10.9697C6.67678 11.2626 6.67678 11.7374 6.96967 12.0303C7.26256 12.3232 7.73744 12.3232 8.0303 12.0303L9.25 10.8107V15C9.25 15.4142 9.5858 15.75 10 15.75C10.4142 15.75 10.75 15.4142 10.75 15V10.8107L11.9697 12.0303C12.2626 12.3232 12.7374 12.3232 13.0303 12.0303C13.3232 11.7374 13.3232 11.2626 13.0303 10.9697L10.5303 8.4697Z" fill="#12141D"/>
</svg>
